<?xml version="1.0" encoding="utf-8"?>
<!-- Generator: Adobe Illustrator 27.3.1, SVG Export Plug-In . SVG Version: 6.00 Build 0)  -->
<svg version="1.1" id="Camada_1" xmlns="http://www.w3.org/2000/svg" xmlns:xlink="http://www.w3.org/1999/xlink" x="0px" y="0px"
	 viewBox="0 0 727 246" style="enable-background:new 0 0 727 246;" xml:space="preserve">
<style type="text/css">
	.st0{fill:#FFFFFF;}
	.st1{fill:#FF00FD;}
</style>
<g>
	<polygon class="st0" points="23.83,230.28 32.37,230.28 32.37,227.83 23.83,227.83 23.83,221.67 33.22,221.67 33.22,219.19 
		20.83,219.19 20.83,239.74 33.32,239.74 33.32,237.26 23.83,237.26 	"/>
	<path class="st0" d="M54.56,230.58c0,0.76,0.01,1.52,0.03,2.28c0.02,0.76,0.06,1.52,0.1,2.28h-0.07c-0.26-0.48-0.55-0.97-0.88-1.47
		s-0.66-0.99-1.01-1.47l-9.36-13.01h-2.61v20.55h2.93v-10.63c0-0.91-0.01-1.83-0.03-2.74c-0.02-0.91-0.06-1.83-0.1-2.74h0.07
		c0.31,0.57,0.63,1.14,0.98,1.73c0.35,0.56,0.68,1.07,1.01,1.53l9.26,12.85h2.61V219.2h-2.93V230.58z"/>
	<path class="st0" d="M70.45,223.24c0.65-0.65,1.4-1.12,2.25-1.4c0.87-0.31,1.78-0.46,2.74-0.46c0.48,0,0.9,0.03,1.27,0.07
		c0.39,0.05,0.76,0.11,1.11,0.2c0.37,0.09,0.73,0.21,1.08,0.36c0.37,0.13,0.76,0.29,1.17,0.46l0.72-2.35
		c-0.74-0.37-1.54-0.66-2.41-0.88c-0.87-0.22-1.98-0.33-3.33-0.33c-1.44,0-2.76,0.24-3.98,0.72c-1.21,0.45-2.27,1.14-3.16,2.05
		c-0.87,0.9-1.55,2-2.05,3.33c-0.5,1.31-0.75,2.8-0.75,4.47c0,1.71,0.25,3.23,0.75,4.56c0.52,1.3,1.22,2.4,2.09,3.29
		c0.89,0.89,1.93,1.56,3.13,2.02c1.19,0.45,2.46,0.68,3.81,0.68c1.3,0,2.4-0.09,3.29-0.26c0.91-0.18,1.75-0.45,2.51-0.82l-0.68-2.41
		c-0.7,0.33-1.4,0.58-2.12,0.75c-0.69,0.17-1.58,0.26-2.67,0.26c-0.94,0-1.82-0.14-2.65-0.42c-0.82-0.3-1.55-0.77-2.18-1.4
		c-0.61-0.63-1.1-1.46-1.47-2.48s-0.55-2.27-0.55-3.75c0-1.46,0.18-2.7,0.55-3.72C69.31,224.74,69.82,223.89,70.45,223.24z"/>
	<path class="st0" d="M102.74,221.57c-0.85-0.89-1.86-1.56-3.03-1.99c-1.18-0.45-2.46-0.68-3.85-0.68c-1.39,0-2.68,0.23-3.89,0.67
		c-1.17,0.45-2.19,1.13-3.06,2.02c-0.87,0.9-1.55,2-2.05,3.33c-0.5,1.3-0.75,2.81-0.75,4.53c0,1.76,0.24,3.3,0.72,4.63
		c0.48,1.3,1.14,2.4,1.99,3.29c0.86,0.87,1.89,1.53,3.06,1.99c1.18,0.43,2.46,0.65,3.85,0.65c1.39,0,2.68-0.22,3.85-0.68
		c1.2-0.45,2.23-1.13,3.1-2.02c0.87-0.89,1.55-1.99,2.05-3.29c0.5-1.32,0.75-2.84,0.75-4.56c0-1.76-0.24-3.3-0.72-4.6
		C104.28,223.54,103.61,222.44,102.74,221.57z M101.72,233.08c-0.33,1.02-0.78,1.87-1.37,2.54c-0.56,0.67-1.24,1.17-2.02,1.5
		c-0.76,0.33-1.59,0.49-2.48,0.49c-0.89,0-1.74-0.16-2.54-0.49c-0.78-0.33-1.46-0.83-2.05-1.5c-0.58-0.67-1.05-1.52-1.4-2.54
		c-0.33-1.02-0.49-2.23-0.49-3.62c0-1.39,0.17-2.59,0.48-3.62c0.33-1.02,0.77-1.87,1.34-2.54c0.56-0.67,1.24-1.17,2.02-1.5
		c0.78-0.33,1.62-0.49,2.51-0.49c0.89,0,1.73,0.16,2.51,0.49c0.81,0.31,1.5,0.8,2.09,1.47c0.59,0.65,1.04,1.49,1.37,2.51
		c0.35,1.02,0.52,2.25,0.52,3.68C102.21,230.85,102.05,232.06,101.72,233.08z"/>
	<path class="st0" d="M126.96,230.58c0,0.76,0.01,1.52,0.03,2.28c0.02,0.76,0.06,1.52,0.1,2.28h-0.07
		c-0.26-0.48-0.55-0.97-0.88-1.47s-0.66-0.99-1.01-1.47l-9.36-13.01h-2.61v20.55h2.93v-10.63c0-0.91-0.01-1.83-0.03-2.74
		c-0.02-0.91-0.06-1.83-0.1-2.74h0.07c0.31,0.57,0.63,1.14,0.98,1.73c0.35,0.56,0.68,1.07,1.01,1.53l9.26,12.85h2.61V219.2h-2.93
		V230.58z"/>
	<polygon class="st0" points="136.38,221.73 142.67,221.73 142.67,239.73 145.67,239.73 145.67,221.73 152.09,221.73 152.09,219.19 
		136.38,219.19 	"/>
	<path class="st0" d="M169.09,230.32c0.52-0.35,0.98-0.75,1.37-1.21c0.4-0.48,0.71-1.03,0.95-1.66c0.24-0.63,0.36-1.34,0.36-2.12
		c0-0.9-0.14-1.71-0.42-2.45c-0.28-0.76-0.7-1.42-1.24-1.96c-0.54-0.54-1.22-0.97-2.05-1.27c-0.8-0.31-1.73-0.46-2.8-0.46h-6.71
		v20.56h2.84v-8.05h3.36l4.86,8.05h3.36l-5.41-8.61C168.08,230.92,168.59,230.65,169.09,230.32z M165.75,229.03
		c-0.57,0.13-1.19,0.2-1.86,0.2h-2.48v-7.63h2.97c1.39,0,2.44,0.32,3.16,0.95c0.74,0.63,1.11,1.6,1.11,2.93
		c0,0.68-0.13,1.25-0.39,1.73c-0.24,0.47-0.58,0.87-1.01,1.17C166.84,228.66,166.34,228.88,165.75,229.03z"/>
	<path class="st0" d="M195.2,221.57c-0.85-0.89-1.86-1.56-3.03-1.99c-1.18-0.45-2.46-0.68-3.85-0.68s-2.69,0.23-3.9,0.67
		c-1.17,0.45-2.19,1.13-3.06,2.02c-0.87,0.9-1.55,2-2.05,3.33c-0.5,1.3-0.75,2.81-0.75,4.53c0,1.76,0.24,3.3,0.72,4.63
		c0.48,1.3,1.14,2.4,1.99,3.29c0.87,0.87,1.9,1.53,3.07,1.99c1.18,0.43,2.46,0.65,3.85,0.65s2.68-0.22,3.85-0.68
		c1.2-0.45,2.23-1.13,3.1-2.02c0.87-0.89,1.55-1.99,2.05-3.29c0.5-1.32,0.75-2.84,0.75-4.56c0-1.76-0.24-3.3-0.72-4.6
		C196.74,223.54,196.07,222.44,195.2,221.57z M194.18,233.08c-0.33,1.02-0.78,1.87-1.37,2.54c-0.56,0.67-1.24,1.17-2.02,1.5
		c-0.76,0.33-1.59,0.49-2.48,0.49s-1.74-0.16-2.54-0.49c-0.78-0.33-1.46-0.83-2.05-1.5c-0.58-0.67-1.05-1.52-1.4-2.54
		c-0.33-1.02-0.49-2.23-0.49-3.62c0-1.39,0.16-2.59,0.48-3.62c0.33-1.02,0.77-1.87,1.34-2.54c0.56-0.67,1.24-1.17,2.02-1.5
		c0.78-0.33,1.62-0.49,2.51-0.49c0.89,0,1.73,0.16,2.51,0.49c0.81,0.31,1.5,0.8,2.09,1.47c0.59,0.65,1.04,1.49,1.37,2.51
		c0.35,1.02,0.52,2.25,0.52,3.68C194.67,230.85,194.51,232.06,194.18,233.08z"/>
	<path class="st0" d="M212.98,228.36l-2.05-0.65c-1.22-0.37-2.1-0.8-2.64-1.3c-0.52-0.5-0.78-1.16-0.78-1.99
		c0-0.98,0.36-1.74,1.08-2.28c0.71-0.55,1.69-0.82,2.93-0.82c0.78,0,1.54,0.09,2.28,0.29c0.76,0.17,1.61,0.48,2.54,0.91l0.72-2.48
		c-0.91-0.43-1.84-0.73-2.77-0.88c-0.93-0.17-1.9-0.26-2.9-0.26c-2.26,0-3.99,0.53-5.2,1.59c-1.17,1.04-1.76,2.47-1.76,4.27
		c0,1.41,0.41,2.53,1.21,3.36c0.81,0.83,1.96,1.48,3.46,1.96l2.05,0.65c0.76,0.24,1.39,0.49,1.89,0.75s0.89,0.55,1.17,0.85
		c0.3,0.31,0.51,0.63,0.62,0.98c0.13,0.33,0.2,0.69,0.2,1.08c0,1.06-0.41,1.87-1.24,2.41c-0.83,0.55-1.83,0.82-3,0.82
		c-0.97,0-1.91-0.11-2.8-0.33c-0.89-0.22-1.81-0.55-2.74-1.01l-0.72,2.45c1.07,0.5,2.13,0.84,3.2,1.01c1.09,0.19,2.16,0.29,3.2,0.29
		c1.04,0,2-0.13,2.87-0.39c0.87-0.28,1.62-0.67,2.25-1.17c0.65-0.52,1.15-1.14,1.5-1.86c0.37-0.74,0.55-1.56,0.55-2.45
		c0-1.26-0.39-2.39-1.17-3.39C216.16,229.75,214.85,228.95,212.98,228.36z"/>
	<path class="st0" d="M253.02,243.28c-0.48,0.15-0.94,0.23-1.37,0.23c-0.74,0-1.41-0.09-2.02-0.26c-0.61-0.15-1.19-0.32-1.76-0.52
		c-0.57-0.19-1.13-0.38-1.7-0.55c-0.54-0.15-1.14-0.23-1.79-0.23l4.43-2.48c2.08-1.17,3.6-2.56,4.53-4.17s1.4-3.56,1.4-5.84
		c0-1.76-0.24-3.3-0.72-4.6c-0.48-1.32-1.15-2.42-2.02-3.29c-0.85-0.89-1.86-1.56-3.03-1.99c-1.18-0.45-2.46-0.68-3.85-0.68
		s-2.68,0.23-3.88,0.68c-1.17,0.45-2.19,1.13-3.06,2.02c-0.87,0.9-1.55,2-2.05,3.33c-0.5,1.3-0.75,2.81-0.75,4.53
		c0,1.54,0.18,2.92,0.55,4.14c0.39,1.22,0.93,2.26,1.6,3.13c0.7,0.85,1.52,1.55,2.45,2.09c0.95,0.52,2.01,0.87,3.16,1.04l-5.02,2.9
		l1.24,2.25c0.56-0.33,1.12-0.58,1.66-0.75c0.57-0.17,1.13-0.26,1.7-0.26c0.72,0,1.43,0.09,2.15,0.29c0.71,0.21,1.44,0.44,2.18,0.68
		c0.74,0.26,1.48,0.48,2.22,0.68c0.76,0.22,1.52,0.33,2.28,0.33c0.63,0,1.3-0.09,2.02-0.29c0.74-0.2,1.41-0.49,2.02-0.88l-1.17-2.18
		C253.99,242.93,253.52,243.15,253.02,243.28z M242.35,237.26c-0.76-0.35-1.42-0.87-1.99-1.57c-0.54-0.7-0.97-1.56-1.27-2.58
		c-0.31-1.04-0.46-2.26-0.46-3.65c0-1.39,0.17-2.59,0.48-3.62c0.33-1.02,0.77-1.87,1.34-2.54c0.56-0.67,1.24-1.17,2.02-1.5
		c0.78-0.33,1.62-0.49,2.51-0.49c0.89,0,1.73,0.16,2.51,0.49c0.81,0.31,1.5,0.8,2.09,1.47c0.59,0.65,1.04,1.49,1.37,2.51
		c0.35,1.02,0.52,2.25,0.52,3.68c0,1.35-0.18,2.55-0.55,3.59c-0.34,1.02-0.82,1.89-1.43,2.61c-0.61,0.7-1.32,1.23-2.12,1.6
		c-0.8,0.35-1.65,0.52-2.54,0.52S243.11,237.61,242.35,237.26z"/>
	<path class="st0" d="M275.21,231.87c0,1.72-0.41,3.1-1.24,4.14c-0.81,1.05-2.09,1.57-3.85,1.57c-1.78,0-3.08-0.47-3.88-1.4
		c-0.81-0.94-1.21-2.5-1.21-4.7v-12.29h-2.99v12.43c0,2.93,0.71,5.07,2.12,6.42c1.44,1.33,3.43,1.99,5.97,1.99
		c2.52,0,4.5-0.67,5.93-2.02c1.43-1.35,2.15-3.43,2.15-6.23v-12.59h-3V231.87z"/>
	<polygon class="st0" points="289.74,230.28 298.28,230.28 298.28,227.83 289.74,227.83 289.74,221.67 299.13,221.67 299.13,219.19 
		286.74,219.19 286.74,239.74 299.23,239.74 299.23,237.26 289.74,237.26 	"/>
	<path class="st0" d="M333.51,219.19l-4.21,13.11c-0.24,0.69-0.45,1.32-0.65,1.89c-0.17,0.56-0.35,1.15-0.52,1.76h-0.07
		c-0.17-0.61-0.35-1.2-0.55-1.79c-0.2-0.61-0.4-1.23-0.62-1.86l-4.3-13.11h-3.91l-1.76,20.56h2.93l0.78-10.89
		c0.09-1.07,0.16-2.13,0.23-3.2c0.09-1.07,0.16-2.13,0.2-3.2h0.07c0.3,1.11,0.61,2.18,0.91,3.2c0.3,1,0.64,2.05,1.01,3.16
		l3.62,10.92h2.74l3.62-10.89c0.35-1.07,0.68-2.13,0.98-3.2c0.33-1.07,0.65-2.13,0.95-3.2h0.07c0.04,1.09,0.09,2.16,0.13,3.23
		c0.05,1.04,0.11,2.09,0.2,3.16l0.85,10.89h3l-1.79-20.54H333.51z"/>
	<path class="st0" d="M360.41,231.87c0,1.72-0.41,3.1-1.24,4.14c-0.81,1.05-2.09,1.57-3.85,1.57c-1.78,0-3.08-0.47-3.88-1.4
		c-0.81-0.94-1.21-2.5-1.21-4.7v-12.29h-2.99v12.43c0,2.93,0.71,5.07,2.12,6.42c1.44,1.33,3.43,1.99,5.97,1.99
		c2.52,0,4.5-0.67,5.93-2.02c1.43-1.35,2.15-3.43,2.15-6.23v-12.59h-3V231.87z"/>
	<polygon class="st0" points="374.93,219.19 371.93,219.19 371.93,239.73 383.7,239.73 383.7,237.19 374.93,237.19 	"/>
	<polygon class="st0" points="385.5,221.73 391.79,221.73 391.79,239.73 394.79,239.73 394.79,221.73 401.21,221.73 401.21,219.19 
		385.5,219.19 	"/>
	<rect x="407.7" y="219.19" class="st0" width="3" height="20.54"/>
	<path class="st0" d="M431.08,220.82c-0.63-0.55-1.38-0.95-2.25-1.21c-0.87-0.28-1.83-0.42-2.9-0.42h-6.46v20.55h3v-7.96h3.07
		c1.11,0,2.12-0.13,3.03-0.39c0.91-0.26,1.71-0.65,2.38-1.17c0.68-0.53,1.2-1.18,1.57-1.96c0.37-0.81,0.55-1.75,0.55-2.84
		c0-1-0.17-1.88-0.52-2.64C432.2,221.99,431.71,221.34,431.08,220.82z M429.51,227.41c-0.28,0.5-0.67,0.89-1.17,1.17
		c-0.48,0.29-1.06,0.48-1.76,0.59s-1.45,0.16-2.25,0.16h-1.86v-7.73h2.77c0.59,0,1.16,0.07,1.73,0.2s1.07,0.35,1.5,0.65
		c0.43,0.31,0.78,0.71,1.04,1.21c0.28,0.47,0.42,1.07,0.42,1.79C429.93,226.24,429.79,226.89,429.51,227.41z"/>
	<polygon class="st0" points="443.12,219.19 440.12,219.19 440.12,239.73 451.89,239.73 451.89,237.19 443.12,237.19 	"/>
	<rect x="458.58" y="219.19" class="st0" width="3" height="20.54"/>
	<path class="st0" d="M474.55,223.24c0.65-0.65,1.4-1.12,2.25-1.4c0.87-0.31,1.78-0.46,2.74-0.46c0.48,0,0.9,0.03,1.27,0.07
		c0.39,0.05,0.76,0.11,1.11,0.2c0.37,0.09,0.73,0.21,1.08,0.36c0.37,0.13,0.76,0.29,1.17,0.46l0.72-2.35
		c-0.74-0.37-1.54-0.66-2.41-0.88c-0.87-0.22-1.98-0.33-3.33-0.33c-1.44,0-2.76,0.24-3.98,0.72c-1.21,0.45-2.27,1.14-3.16,2.05
		c-0.87,0.9-1.55,2-2.05,3.33c-0.5,1.31-0.75,2.8-0.75,4.47c0,1.71,0.25,3.23,0.75,4.56c0.52,1.3,1.22,2.4,2.09,3.29
		c0.89,0.89,1.93,1.56,3.13,2.02c1.19,0.45,2.46,0.68,3.81,0.68c1.3,0,2.4-0.09,3.29-0.26c0.91-0.18,1.75-0.45,2.51-0.82l-0.68-2.41
		c-0.7,0.33-1.4,0.58-2.12,0.75c-0.69,0.17-1.58,0.26-2.67,0.26c-0.94,0-1.82-0.14-2.65-0.42c-0.82-0.3-1.55-0.77-2.18-1.4
		c-0.61-0.63-1.1-1.46-1.47-2.48s-0.55-2.27-0.55-3.75c0-1.46,0.18-2.7,0.55-3.72C473.41,224.74,473.92,223.89,474.55,223.24z"/>
	<path class="st0" d="M497.89,219.19l-8.3,20.54h3.1l2.22-5.71h8.45l2.25,5.71h3.13l-8.18-20.54H497.89z M502.49,231.65h-6.75
		l1.4-3.55c0.37-0.98,0.71-1.89,1.04-2.74c0.33-0.85,0.65-1.73,0.95-2.64h0.07c0.3,0.91,0.61,1.8,0.91,2.67
		c0.3,0.87,0.64,1.78,1.01,2.71L502.49,231.65z"/>
	<path class="st0" d="M531.01,219.19l-4.21,13.11c-0.24,0.69-0.45,1.32-0.65,1.89c-0.17,0.56-0.35,1.15-0.52,1.76h-0.07
		c-0.17-0.61-0.35-1.2-0.55-1.79c-0.2-0.61-0.4-1.23-0.62-1.86l-4.3-13.11h-3.91l-1.76,20.56h2.93l0.78-10.89
		c0.09-1.07,0.16-2.13,0.23-3.2c0.09-1.07,0.16-2.13,0.2-3.2h0.07c0.3,1.11,0.61,2.18,0.91,3.2c0.3,1,0.64,2.05,1.01,3.16
		l3.62,10.92h2.74l3.62-10.89c0.35-1.07,0.68-2.13,0.98-3.2c0.33-1.07,0.65-2.13,0.95-3.2h0.07c0.04,1.09,0.09,2.16,0.13,3.23
		c0.05,1.04,0.11,2.09,0.2,3.16l0.85,10.89h3l-1.79-20.54H531.01z"/>
	<path class="st0" d="M560,223.24c0.65-0.65,1.4-1.12,2.25-1.4c0.87-0.31,1.78-0.46,2.74-0.46c0.48,0,0.9,0.03,1.27,0.07
		c0.39,0.05,0.76,0.11,1.11,0.2c0.37,0.09,0.73,0.21,1.08,0.36c0.37,0.13,0.76,0.29,1.17,0.46l0.72-2.35
		c-0.74-0.37-1.54-0.66-2.41-0.88c-0.87-0.22-1.98-0.33-3.33-0.33c-1.44,0-2.76,0.24-3.98,0.72c-1.21,0.45-2.27,1.14-3.16,2.05
		c-0.87,0.9-1.55,2-2.05,3.33c-0.5,1.31-0.75,2.8-0.75,4.47c0,1.71,0.25,3.23,0.75,4.56c0.52,1.3,1.22,2.4,2.09,3.29
		c0.89,0.89,1.93,1.56,3.13,2.02c1.19,0.45,2.46,0.68,3.81,0.68c1.3,0,2.4-0.09,3.29-0.26c0.91-0.18,1.75-0.45,2.51-0.82l-0.68-2.41
		c-0.7,0.33-1.4,0.58-2.12,0.75c-0.69,0.17-1.58,0.26-2.67,0.26c-0.94,0-1.82-0.14-2.65-0.42c-0.82-0.3-1.55-0.77-2.18-1.4
		c-0.61-0.63-1.1-1.46-1.47-2.48s-0.55-2.27-0.55-3.75c0-1.46,0.18-2.7,0.55-3.72C558.86,224.74,559.37,223.89,560,223.24z"/>
	<path class="st0" d="M592.29,221.57c-0.85-0.89-1.86-1.56-3.03-1.99c-1.18-0.45-2.46-0.68-3.85-0.68c-1.39,0-2.68,0.23-3.89,0.67
		c-1.18,0.45-2.2,1.13-3.07,2.02c-0.87,0.9-1.55,2-2.05,3.33c-0.5,1.3-0.75,2.81-0.75,4.53c0,1.76,0.24,3.3,0.72,4.63
		c0.48,1.3,1.14,2.4,1.99,3.29c0.87,0.87,1.9,1.53,3.07,1.99c1.18,0.43,2.46,0.65,3.85,0.65s2.68-0.22,3.85-0.68
		c1.2-0.45,2.23-1.13,3.1-2.02c0.87-0.89,1.55-1.99,2.05-3.29c0.5-1.32,0.75-2.84,0.75-4.56c0-1.76-0.24-3.3-0.72-4.6
		C593.83,223.54,593.16,222.44,592.29,221.57z M591.28,233.08c-0.33,1.02-0.78,1.87-1.37,2.54c-0.56,0.67-1.24,1.17-2.02,1.5
		c-0.76,0.33-1.59,0.49-2.48,0.49s-1.74-0.16-2.54-0.49c-0.78-0.33-1.46-0.83-2.05-1.5c-0.58-0.67-1.05-1.52-1.4-2.54
		c-0.33-1.02-0.49-2.23-0.49-3.62c0-1.39,0.16-2.59,0.48-3.62c0.33-1.02,0.77-1.87,1.34-2.54c0.56-0.67,1.24-1.17,2.02-1.5
		c0.78-0.33,1.62-0.49,2.51-0.49s1.73,0.16,2.51,0.49c0.81,0.31,1.5,0.8,2.09,1.47c0.59,0.65,1.04,1.49,1.37,2.51
		c0.35,1.02,0.52,2.25,0.52,3.68C591.77,230.85,591.61,232.06,591.28,233.08z"/>
	<path class="st0" d="M616.51,230.58c0,0.76,0.01,1.52,0.03,2.28s0.06,1.52,0.1,2.28h-0.07c-0.26-0.48-0.55-0.97-0.88-1.47
		c-0.32-0.5-0.66-0.99-1.01-1.47l-9.36-13.01h-2.61v20.55h2.93v-10.63c0-0.91-0.01-1.83-0.03-2.74c-0.02-0.91-0.06-1.83-0.1-2.74
		h0.07c0.31,0.57,0.63,1.14,0.98,1.73c0.35,0.56,0.68,1.07,1.01,1.53l9.26,12.85h2.61V219.2h-2.93V230.58z"/>
	<polygon class="st0" points="631.21,230.28 639.75,230.28 639.75,227.83 631.21,227.83 631.21,221.67 640.6,221.67 640.6,219.19 
		628.21,219.19 628.21,239.74 640.7,239.74 640.7,237.26 631.21,237.26 	"/>
	<polygon class="st0" points="662.79,219.19 659.5,219.19 654.35,227.21 649.43,219.19 646.01,219.19 652.56,229.3 645.71,239.73 
		649,239.73 654.35,231.38 659.66,239.73 663.12,239.73 656.04,229.3 	"/>
	<path class="st0" d="M684.02,221.57c-0.85-0.89-1.86-1.56-3.03-1.99c-1.18-0.45-2.46-0.68-3.85-0.68s-2.69,0.23-3.9,0.67
		c-1.17,0.45-2.19,1.13-3.06,2.02c-0.87,0.9-1.55,2-2.05,3.33c-0.5,1.3-0.75,2.81-0.75,4.53c0,1.76,0.24,3.3,0.72,4.63
		c0.48,1.3,1.14,2.4,1.99,3.29c0.87,0.87,1.9,1.53,3.07,1.99c1.18,0.43,2.46,0.65,3.85,0.65s2.68-0.22,3.85-0.68
		c1.2-0.45,2.23-1.13,3.1-2.02c0.87-0.89,1.55-1.99,2.05-3.29c0.5-1.32,0.75-2.84,0.75-4.56c0-1.76-0.24-3.3-0.72-4.6
		C685.56,223.54,684.89,222.44,684.02,221.57z M683,233.08c-0.33,1.02-0.78,1.87-1.37,2.54c-0.56,0.67-1.24,1.17-2.02,1.5
		c-0.76,0.33-1.59,0.49-2.48,0.49s-1.74-0.16-2.54-0.49c-0.78-0.33-1.46-0.83-2.05-1.5c-0.58-0.67-1.05-1.52-1.4-2.54
		c-0.33-1.02-0.49-2.23-0.49-3.62c0-1.39,0.16-2.59,0.48-3.62c0.33-1.02,0.77-1.87,1.34-2.54c0.56-0.67,1.24-1.17,2.02-1.5
		c0.78-0.33,1.62-0.49,2.51-0.49s1.73,0.16,2.51,0.49c0.81,0.31,1.5,0.8,2.09,1.47c0.59,0.65,1.04,1.49,1.37,2.51
		c0.35,1.02,0.52,2.25,0.52,3.68C683.49,230.85,683.33,232.06,683,233.08z"/>
	<path class="st0" d="M673.95,215.48c0.2-0.28,0.52-0.42,0.98-0.42c0.26,0,0.55,0.08,0.85,0.23c0.31,0.13,0.63,0.29,0.98,0.49
		c0.35,0.17,0.72,0.34,1.11,0.49c0.41,0.13,0.84,0.2,1.3,0.2c0.45,0,0.84-0.09,1.17-0.29c0.35-0.22,0.63-0.49,0.85-0.82
		c0.24-0.35,0.41-0.73,0.52-1.14c0.11-0.44,0.16-0.88,0.16-1.34h-1.63c-0.04,0.37-0.16,0.71-0.36,1.04
		c-0.17,0.33-0.48,0.49-0.91,0.49c-0.35,0-0.67-0.08-0.98-0.23c-0.31-0.15-0.62-0.32-0.95-0.49c-0.3-0.17-0.64-0.34-1.01-0.49
		c-0.35-0.15-0.75-0.23-1.21-0.23c-1,0-1.72,0.34-2.18,1.04c-0.43,0.69-0.65,1.54-0.65,2.54v0.01h1.63
		C673.67,216.12,673.78,215.76,673.95,215.48z"/>
	<polygon class="st0" points="697.44,230.28 705.98,230.28 705.98,227.83 697.44,227.83 697.44,221.67 706.83,221.67 706.83,219.19 
		694.44,219.19 694.44,239.74 706.93,239.74 706.93,237.26 697.44,237.26 	"/>
	<path class="st0" d="M721.72,228.36l-2.05-0.65c-1.22-0.37-2.1-0.8-2.64-1.3c-0.52-0.5-0.78-1.16-0.78-1.99
		c0-0.98,0.36-1.74,1.08-2.28c0.71-0.55,1.69-0.82,2.93-0.82c0.78,0,1.54,0.09,2.28,0.29c0.76,0.17,1.61,0.48,2.54,0.91l0.72-2.48
		c-0.91-0.43-1.84-0.73-2.77-0.88c-0.93-0.17-1.9-0.26-2.9-0.26c-2.26,0-3.99,0.53-5.2,1.59c-1.17,1.04-1.76,2.47-1.76,4.27
		c0,1.41,0.41,2.53,1.21,3.36c0.81,0.83,1.96,1.48,3.46,1.96l2.05,0.65c0.76,0.24,1.39,0.49,1.89,0.75s0.89,0.55,1.17,0.85
		c0.3,0.31,0.51,0.63,0.62,0.98c0.13,0.33,0.2,0.69,0.2,1.08c0,1.06-0.41,1.87-1.24,2.41c-0.83,0.55-1.83,0.82-3,0.82
		c-0.97,0-1.91-0.11-2.8-0.33c-0.89-0.22-1.81-0.55-2.74-1.01l-0.72,2.45c1.07,0.5,2.13,0.84,3.2,1.01c1.09,0.19,2.16,0.29,3.2,0.29
		s2-0.13,2.87-0.39c0.87-0.28,1.62-0.67,2.25-1.17c0.65-0.52,1.15-1.14,1.5-1.86c0.37-0.74,0.55-1.56,0.55-2.45
		c0-1.26-0.39-2.39-1.17-3.39C724.9,229.75,723.59,228.95,721.72,228.36z"/>
	<rect x="592.38" y="101.17" class="st0" width="20.68" height="37.18"/>
	<path class="st0" d="M638.03,120.29c-1.77-3.05-3.9-5.82-6.39-8.32c-0.57-0.57-1.16-1.11-1.75-1.65l-13.29,14.92
		c0.22,0.21,0.44,0.41,0.65,0.63c1.8,1.92,3.19,4.18,4.19,6.76c1,2.58,1.5,5.33,1.5,8.26c0,2.96-0.5,5.72-1.5,8.28
		c-1,2.57-2.39,4.8-4.19,6.72c-1.79,1.91-3.93,3.4-6.4,4.49c-2.47,1.09-5.19,1.63-8.14,1.63s-5.66-0.54-8.11-1.63
		c-2.46-1.09-4.59-2.58-6.39-4.49c-1.79-1.91-3.19-4.15-4.18-6.72c-1-2.56-1.5-5.32-1.5-8.28c0-2.92,0.5-5.67,1.5-8.26
		c0.99-2.58,2.39-4.84,4.18-6.76c0.18-0.19,0.38-0.37,0.57-0.55l-13.34-14.9c-0.56,0.5-1.12,1.02-1.65,1.55
		c-2.48,2.5-4.61,5.26-6.39,8.32c-1.78,3.05-3.16,6.31-4.12,9.78c-0.96,3.47-1.44,7.1-1.44,10.88c0,3.78,0.49,7.4,1.44,10.88
		c0.97,3.47,2.34,6.72,4.12,9.73c1.77,3.01,3.91,5.75,6.39,8.23c2.48,2.48,5.24,4.6,8.27,6.39c3.04,1.78,6.29,3.16,9.76,4.12
		c3.48,0.97,7.11,1.44,10.88,1.44c3.75,0,7.37-0.48,10.86-1.44c3.5-0.96,6.76-2.33,9.79-4.12c3.04-1.78,5.8-3.91,8.29-6.39
		c2.5-2.48,4.63-5.22,6.39-8.23s3.14-6.26,4.12-9.73c0.97-3.48,1.47-7.1,1.47-10.88c0-3.78-0.5-7.4-1.47-10.88
		C641.17,126.59,639.79,123.33,638.03,120.29z"/>
	<polygon class="st0" points="706.64,101.17 706.64,146.02 678.61,101.17 656.88,101.17 656.88,180.55 676.78,180.55 676.87,132.28 
		706.11,180.55 726.85,180.55 726.85,101.17 	"/>
</g>
<g>
	<g>
		<path class="st1" d="M259.01,73.26c2.14-2.22,3.85-4.81,5.12-7.75c1.27-2.95,1.9-6.06,1.9-9.35c0-3.68-0.76-7.17-2.28-10.45
			c-1.52-3.29-3.57-6.13-6.17-8.51c1.55-1.84,2.75-3.93,3.6-6.26c0.86-2.33,1.28-4.85,1.28-7.56c0-3.25-0.62-6.29-1.84-9.13
			c-1.23-2.84-2.9-5.31-5.01-7.43c-2.12-2.11-4.59-3.78-7.4-4.98c-2.82-1.21-5.82-1.82-9-1.82h-38.37v80.49h41.57
			c3.18,0,6.21-0.65,9.09-1.95C254.34,77.24,256.86,75.48,259.01,73.26z M221.8,16h11.63c1.2,0,2.3,0.2,3.32,0.62
			c1.01,0.41,1.88,0.99,2.61,1.71c0.72,0.72,1.28,1.55,1.68,2.49s0.59,1.96,0.59,3.04c0,1.16-0.2,2.21-0.62,3.17
			c-0.42,0.96-0.99,1.79-1.71,2.5c-0.73,0.7-1.61,1.24-2.64,1.62c-1.03,0.38-2.17,0.56-3.4,0.56H221.8V16z M243.88,58.7
			c-0.41,1.09-1.01,2.06-1.76,2.9c-0.76,0.85-1.65,1.53-2.66,2.03c-1.01,0.51-2.12,0.76-3.31,0.76H221.8v-18.1h14.34
			c1.19,0,2.3,0.27,3.33,0.81c1.03,0.55,1.92,1.24,2.66,2.09s1.32,1.82,1.74,2.9c0.41,1.08,0.63,2.16,0.63,3.25
			C244.51,56.5,244.3,57.62,243.88,58.7z"/>
		<path class="st1" d="M68.74,78.11c0,0.01,0.01,0.01,0.01,0.02v2.36h20.97V0.01H68.75v2.37c0,0.01-0.01,0.01-0.01,0.02v25.74H41.8
			V0.01H20.83V80.5H41.8V47.32h26.94V78.11z"/>
		<path class="st1" d="M168.95,74.4c3.15-2.62,5.65-6.08,7.51-10.38s2.8-9.61,2.8-15.93V0.01h-20.97v2.37
			c0,0.01-0.01,0.01-0.01,0.02v45.99c0,2.39-0.35,4.51-1.06,6.35c-0.71,1.84-1.67,3.39-2.88,4.64c-1.21,1.24-2.62,2.19-4.23,2.81
			c-1.61,0.64-3.32,0.95-5.13,0.95c-1.74,0-3.41-0.27-5.03-0.81c-1.61-0.55-3.03-1.4-4.23-2.58c-1.22-1.18-2.2-2.7-2.94-4.56
			s-1.11-4.13-1.11-6.81V2.4c0-0.01-0.01-0.01-0.01-0.02V0.01h-20.97v48.08c0,6.21,0.94,11.46,2.8,15.75
			c1.86,4.28,4.36,7.75,7.51,10.4c3.14,2.66,6.79,4.58,10.95,5.75c4.15,1.17,8.51,1.76,13.06,1.76s8.89-0.56,13.03-1.7
			C162.17,78.9,165.81,77.02,168.95,74.4z"/>
	</g>
	<rect x="0.15" y="80.49" class="st1" width="20.68" height="20.68"/>
	<path class="st1" d="M310.58,130.07c-0.98-3.47-2.36-6.73-4.12-9.78c-1.77-3.05-3.9-5.82-6.39-8.32c-2.49-2.49-5.25-4.62-8.29-6.39
		c-3.03-1.77-6.29-3.13-9.79-4.12c-3.49-0.98-7.11-1.47-10.86-1.47c-3.78,0-7.4,0.49-10.88,1.47c-3.47,0.98-6.73,2.35-9.76,4.12
		c-3.03,1.77-5.79,3.9-8.27,6.39c-2.48,2.5-4.61,5.26-6.39,8.32c-1.78,3.05-3.16,6.31-4.12,9.78c-0.96,3.47-1.44,7.1-1.44,10.88
		s0.49,7.4,1.44,10.88c0.97,3.47,2.34,6.72,4.12,9.73c1.77,3.01,3.91,5.75,6.39,8.23s5.24,4.6,8.27,6.39
		c3.04,1.78,6.29,3.16,9.76,4.12c3.48,0.97,7.11,1.44,10.88,1.44c3.75,0,7.37-0.48,10.86-1.44c3.5-0.96,6.76-2.33,9.79-4.12
		c3.04-1.78,5.8-3.91,8.29-6.39c2.5-2.48,4.63-5.22,6.39-8.23s3.14-6.26,4.12-9.73c0.97-3.48,1.47-7.1,1.47-10.88
		C312.05,137.17,311.55,133.54,310.58,130.07z M289.86,149.17c-1,2.57-2.39,4.8-4.19,6.72c-1.79,1.91-3.93,3.4-6.4,4.49
		c-2.47,1.09-5.19,1.63-8.14,1.63s-5.66-0.54-8.11-1.63c-2.46-1.09-4.58-2.58-6.39-4.49c-1.79-1.91-3.19-4.15-4.18-6.72
		c-1-2.56-1.5-5.32-1.5-8.28c0-2.92,0.5-5.67,1.5-8.26c0.99-2.58,2.39-4.84,4.18-6.76c1.8-1.92,3.92-3.45,6.39-4.55
		c2.45-1.1,5.16-1.65,8.11-1.65c2.96,0,5.67,0.56,8.14,1.65c2.47,1.1,4.61,2.63,6.4,4.55c1.8,1.92,3.19,4.18,4.19,6.76
		s1.5,5.33,1.5,8.26C291.36,143.85,290.86,146.61,289.86,149.17z"/>
	<rect x="20.83" y="132.19" class="st1" width="20.68" height="48.36"/>
	<polygon class="st1" points="196.32,146.02 168.28,101.17 146.55,101.17 146.55,180.55 166.46,180.55 166.55,132.28 195.79,180.55 
		216.52,180.55 216.52,101.17 196.32,101.17 	"/>
	<rect x="20.83" y="101.17" class="st1" width="20.68" height="20.68"/>
	<rect x="532.39" y="132.19" class="st1" width="20.68" height="48.36"/>
	<rect x="532.39" y="101.17" class="st1" width="20.68" height="20.68"/>
	<polygon class="st1" points="108.71,146.02 80.68,101.17 58.95,101.17 58.95,180.55 78.85,180.55 78.94,132.28 108.18,180.55 
		128.92,180.55 128.92,101.17 108.71,101.17 	"/>
	<path class="st1" d="M390.63,103.57l0.92-2.39h-22.27l-1.78,5.32c-1.04,2.96-2.07,5.92-3.04,8.87c-0.98,2.98-1.95,5.97-2.91,8.96
		l-9.19,27.53l-16.92-50.68h-22.11l0.91,2.39c0,0.01,0,0.01,0,0.02l27.42,71.79l0,0l1.98,5.19h17.38l1.26-3.27
		c0.04-0.09,0.08-0.17,0.12-0.27c0.24-0.6,0.46-1.16,0.64-1.65l27.59-71.79L390.63,103.57L390.63,103.57z"/>
	<path class="st1" d="M431.08,101.17h-17.95l-30.66,79.38h20.5l4.86-12.83h28.39l4.7,12.83h20.81L431.08,101.17z M413.83,150.56
		l8.24-24.43l8.18,24.43H413.83z"/>
	<polygon class="st1" points="456.65,101.17 456.65,121.85 477.6,121.85 477.6,180.55 498.28,180.55 498.28,121.85 519.24,121.85 
		519.24,101.17 	"/>
</g>
</svg>
