<svg width="554" height="182" viewBox="0 0 554 182" fill="none" xmlns="http://www.w3.org/2000/svg">
<path d="M259.01 73.26C261.15 71.04 262.86 68.45 264.13 65.51C265.4 62.56 266.03 59.45 266.03 56.16C266.03 52.48 265.27 48.99 263.75 45.71C262.23 42.42 260.18 39.58 257.58 37.2C259.13 35.36 260.33 33.27 261.18 30.94C262.04 28.61 262.46 26.09 262.46 23.38C262.46 20.13 261.84 17.09 260.62 14.25C259.39 11.41 257.72 8.94002 255.61 6.82002C253.49 4.71002 251.02 3.04002 248.21 1.84002C245.39 0.63002 242.39 0.0200195 239.21 0.0200195H200.84V80.51H242.41C245.59 80.51 248.62 79.86 251.5 78.56C254.34 77.24 256.86 75.48 259.01 73.26ZM221.8 16H233.43C234.63 16 235.73 16.2 236.75 16.62C237.76 17.03 238.63 17.61 239.36 18.33C240.08 19.05 240.64 19.88 241.04 20.82C241.44 21.76 241.63 22.78 241.63 23.86C241.63 25.02 241.43 26.07 241.01 27.03C240.59 27.99 240.02 28.82 239.3 29.53C238.57 30.23 237.69 30.77 236.66 31.15C235.63 31.53 234.49 31.71 233.26 31.71H221.8V16ZM243.88 58.7C243.47 59.79 242.87 60.76 242.12 61.6C241.36 62.45 240.47 63.13 239.46 63.63C238.45 64.14 237.34 64.39 236.15 64.39H221.8V46.29H236.14C237.33 46.29 238.44 46.56 239.47 47.1C240.5 47.65 241.39 48.34 242.13 49.19C242.87 50.04 243.45 51.01 243.87 52.09C244.28 53.17 244.5 54.25 244.5 55.34C244.51 56.5 244.3 57.62 243.88 58.7Z" fill="#FF00FD"/>
<path d="M68.7401 78.11C68.7401 78.12 68.7501 78.12 68.7501 78.13V80.49H89.7201V0.0100098H68.7501V2.38001C68.7501 2.39001 68.7401 2.39001 68.7401 2.40001V28.14H41.8001V0.0100098H20.8301V80.5H41.8001V47.32H68.7401V78.11Z" fill="#FF00FD"/>
<path d="M168.95 74.4C172.1 71.78 174.6 68.32 176.46 64.02C178.32 59.72 179.26 54.41 179.26 48.09V0.0100098H158.29V2.38001C158.29 2.39001 158.28 2.39001 158.28 2.40001V48.39C158.28 50.78 157.93 52.9 157.22 54.74C156.51 56.58 155.55 58.13 154.34 59.38C153.13 60.62 151.72 61.57 150.11 62.19C148.5 62.83 146.79 63.14 144.98 63.14C143.24 63.14 141.57 62.87 139.95 62.33C138.34 61.78 136.92 60.93 135.72 59.75C134.5 58.57 133.52 57.05 132.78 55.19C132.04 53.33 131.67 51.06 131.67 48.38V2.40001C131.67 2.39001 131.66 2.39001 131.66 2.38001V0.0100098H110.69V48.09C110.69 54.3 111.63 59.55 113.49 63.84C115.35 68.12 117.85 71.59 121 74.24C124.14 76.9 127.79 78.82 131.95 79.99C136.1 81.16 140.46 81.75 145.01 81.75C149.56 81.75 153.9 81.19 158.04 80.05C162.17 78.9 165.81 77.02 168.95 74.4Z" fill="#FF00FD"/>
<path d="M20.8299 80.49H0.149902V101.17H20.8299V80.49Z" fill="#FF00FD"/>
<path d="M310.58 130.07C309.6 126.6 308.22 123.34 306.46 120.29C304.69 117.24 302.56 114.47 300.07 111.97C297.58 109.48 294.82 107.35 291.78 105.58C288.75 103.81 285.49 102.45 281.99 101.46C278.5 100.48 274.88 99.99 271.13 99.99C267.35 99.99 263.73 100.48 260.25 101.46C256.78 102.44 253.52 103.81 250.49 105.58C247.46 107.35 244.7 109.48 242.22 111.97C239.74 114.47 237.61 117.23 235.83 120.29C234.05 123.34 232.67 126.6 231.71 130.07C230.75 133.54 230.27 137.17 230.27 140.95C230.27 144.73 230.76 148.35 231.71 151.83C232.68 155.3 234.05 158.55 235.83 161.56C237.6 164.57 239.74 167.31 242.22 169.79C244.7 172.27 247.46 174.39 250.49 176.18C253.53 177.96 256.78 179.34 260.25 180.3C263.73 181.27 267.36 181.74 271.13 181.74C274.88 181.74 278.5 181.26 281.99 180.3C285.49 179.34 288.75 177.97 291.78 176.18C294.82 174.4 297.58 172.27 300.07 169.79C302.57 167.31 304.7 164.57 306.46 161.56C308.22 158.55 309.6 155.3 310.58 151.83C311.55 148.35 312.05 144.73 312.05 140.95C312.05 137.17 311.55 133.54 310.58 130.07ZM289.86 149.17C288.86 151.74 287.47 153.97 285.67 155.89C283.88 157.8 281.74 159.29 279.27 160.38C276.8 161.47 274.08 162.01 271.13 162.01C268.18 162.01 265.47 161.47 263.02 160.38C260.56 159.29 258.44 157.8 256.63 155.89C254.84 153.98 253.44 151.74 252.45 149.17C251.45 146.61 250.95 143.85 250.95 140.89C250.95 137.97 251.45 135.22 252.45 132.63C253.44 130.05 254.84 127.79 256.63 125.87C258.43 123.95 260.55 122.42 263.02 121.32C265.47 120.22 268.18 119.67 271.13 119.67C274.09 119.67 276.8 120.23 279.27 121.32C281.74 122.42 283.88 123.95 285.67 125.87C287.47 127.79 288.86 130.05 289.86 132.63C290.86 135.21 291.36 137.96 291.36 140.89C291.36 143.85 290.86 146.61 289.86 149.17Z" fill="#FF00FD"/>
<path d="M41.5101 132.19H20.8301V180.55H41.5101V132.19Z" fill="#FF00FD"/>
<path d="M196.32 146.02L168.28 101.17H146.55V180.55H166.46L166.55 132.28L195.79 180.55H216.52V101.17H196.32V146.02Z" fill="#FF00FD"/>
<path d="M41.5101 101.17H20.8301V121.85H41.5101V101.17Z" fill="#FF00FD"/>
<path d="M553.07 132.19H532.39V180.55H553.07V132.19Z" fill="#FF00FD"/>
<path d="M553.07 101.17H532.39V121.85H553.07V101.17Z" fill="#FF00FD"/>
<path d="M108.71 146.02L80.6797 101.17H58.9497V180.55H78.8497L78.9397 132.28L108.18 180.55H128.92V101.17H108.71V146.02Z" fill="#FF00FD"/>
<path d="M390.63 103.57L391.55 101.18H369.28L367.5 106.5C366.46 109.46 365.43 112.42 364.46 115.37C363.48 118.35 362.51 121.34 361.55 124.33L352.36 151.86L335.44 101.18H313.33L314.24 103.57C314.24 103.58 314.24 103.58 314.24 103.59L341.66 175.38L343.64 180.57H361.02L362.28 177.3C362.32 177.21 362.36 177.13 362.4 177.03C362.64 176.43 362.86 175.87 363.04 175.38L390.63 103.59V103.57Z" fill="#FF00FD"/>
<path d="M431.08 101.17H413.13L382.47 180.55H402.97L407.83 167.72H436.22L440.92 180.55H461.73L431.08 101.17ZM413.83 150.56L422.07 126.13L430.25 150.56H413.83Z" fill="#FF00FD"/>
<path d="M456.65 101.17V121.85H477.6V180.55H498.28V121.85H519.24V101.17H456.65Z" fill="#FF00FD"/>
</svg>
