<?xml version="1.0" encoding="utf-8"?>
<!-- Generator: Adobe Illustrator 27.3.1, SVG Export Plug-In . SVG Version: 6.00 Build 0)  -->
<svg version="1.1" id="Camada_1" xmlns="http://www.w3.org/2000/svg" xmlns:xlink="http://www.w3.org/1999/xlink" x="0px" y="0px"
	 viewBox="0 0 727 182" style="enable-background:new 0 0 727 182;" xml:space="preserve">
<style type="text/css">
	.st0{fill:#FF00FD;}
</style>
<g>
	<g>
		<path class="st0" d="M259.01,73.26c2.14-2.22,3.85-4.81,5.12-7.75c1.27-2.95,1.9-6.06,1.9-9.35c0-3.68-0.76-7.17-2.28-10.45
			c-1.52-3.29-3.57-6.13-6.17-8.51c1.55-1.84,2.75-3.93,3.6-6.26c0.86-2.33,1.28-4.85,1.28-7.56c0-3.25-0.62-6.29-1.84-9.13
			c-1.23-2.84-2.9-5.31-5.01-7.43c-2.12-2.11-4.59-3.78-7.4-4.98c-2.82-1.21-5.82-1.82-9-1.82h-38.37v80.49h41.57
			c3.18,0,6.21-0.65,9.09-1.95C254.34,77.24,256.86,75.48,259.01,73.26z M221.8,16h11.63c1.2,0,2.3,0.2,3.32,0.62
			c1.01,0.41,1.88,0.99,2.61,1.71c0.72,0.72,1.28,1.55,1.68,2.49s0.59,1.96,0.59,3.04c0,1.16-0.2,2.21-0.62,3.17
			c-0.42,0.96-0.99,1.79-1.71,2.5c-0.73,0.7-1.61,1.24-2.64,1.62c-1.03,0.38-2.17,0.56-3.4,0.56H221.8V16z M243.88,58.7
			c-0.41,1.09-1.01,2.06-1.76,2.9c-0.76,0.85-1.65,1.53-2.66,2.03c-1.01,0.51-2.12,0.76-3.31,0.76H221.8v-18.1h14.34
			c1.19,0,2.3,0.27,3.33,0.81c1.03,0.55,1.92,1.24,2.66,2.09s1.32,1.82,1.74,2.9c0.41,1.08,0.63,2.16,0.63,3.25
			C244.51,56.5,244.3,57.62,243.88,58.7z"/>
		<path class="st0" d="M68.74,78.11c0,0.01,0.01,0.01,0.01,0.02v2.36h20.97V0.01H68.75v2.37c0,0.01-0.01,0.01-0.01,0.02v25.74H41.8
			V0.01H20.83V80.5H41.8V47.32h26.94V78.11z"/>
		<path class="st0" d="M168.95,74.4c3.15-2.62,5.65-6.08,7.51-10.38s2.8-9.61,2.8-15.93V0.01h-20.97v2.37
			c0,0.01-0.01,0.01-0.01,0.02v45.99c0,2.39-0.35,4.51-1.06,6.35c-0.71,1.84-1.67,3.39-2.88,4.64c-1.21,1.24-2.62,2.19-4.23,2.81
			c-1.61,0.64-3.32,0.95-5.13,0.95c-1.74,0-3.41-0.27-5.03-0.81c-1.61-0.55-3.03-1.4-4.23-2.58c-1.22-1.18-2.2-2.7-2.94-4.56
			s-1.11-4.13-1.11-6.81V2.4c0-0.01-0.01-0.01-0.01-0.02V0.01h-20.97v48.08c0,6.21,0.94,11.46,2.8,15.75
			c1.86,4.28,4.36,7.75,7.51,10.4c3.14,2.66,6.79,4.58,10.95,5.75c4.15,1.17,8.51,1.76,13.06,1.76s8.89-0.56,13.03-1.7
			C162.17,78.9,165.81,77.02,168.95,74.4z"/>
	</g>
	<rect x="0.15" y="80.49" class="st0" width="20.68" height="20.68"/>
	<path class="st0" d="M310.58,130.07c-0.98-3.47-2.36-6.73-4.12-9.78c-1.77-3.05-3.9-5.82-6.39-8.32c-2.49-2.49-5.25-4.62-8.29-6.39
		c-3.03-1.77-6.29-3.13-9.79-4.12c-3.49-0.98-7.11-1.47-10.86-1.47c-3.78,0-7.4,0.49-10.88,1.47c-3.47,0.98-6.73,2.35-9.76,4.12
		c-3.03,1.77-5.79,3.9-8.27,6.39c-2.48,2.5-4.61,5.26-6.39,8.32c-1.78,3.05-3.16,6.31-4.12,9.78c-0.96,3.47-1.44,7.1-1.44,10.88
		s0.49,7.4,1.44,10.88c0.97,3.47,2.34,6.72,4.12,9.73c1.77,3.01,3.91,5.75,6.39,8.23s5.24,4.6,8.27,6.39
		c3.04,1.78,6.29,3.16,9.76,4.12c3.48,0.97,7.11,1.44,10.88,1.44c3.75,0,7.37-0.48,10.86-1.44c3.5-0.96,6.76-2.33,9.79-4.12
		c3.04-1.78,5.8-3.91,8.29-6.39c2.5-2.48,4.63-5.22,6.39-8.23s3.14-6.26,4.12-9.73c0.97-3.48,1.47-7.1,1.47-10.88
		C312.05,137.17,311.55,133.54,310.58,130.07z M289.86,149.17c-1,2.57-2.39,4.8-4.19,6.72c-1.79,1.91-3.93,3.4-6.4,4.49
		c-2.47,1.09-5.19,1.63-8.14,1.63s-5.66-0.54-8.11-1.63c-2.46-1.09-4.58-2.58-6.39-4.49c-1.79-1.91-3.19-4.15-4.18-6.72
		c-1-2.56-1.5-5.32-1.5-8.28c0-2.92,0.5-5.67,1.5-8.26c0.99-2.58,2.39-4.84,4.18-6.76c1.8-1.92,3.92-3.45,6.39-4.55
		c2.45-1.1,5.16-1.65,8.11-1.65c2.96,0,5.67,0.56,8.14,1.65c2.47,1.1,4.61,2.63,6.4,4.55c1.8,1.92,3.19,4.18,4.19,6.76
		s1.5,5.33,1.5,8.26C291.36,143.85,290.86,146.61,289.86,149.17z"/>
	<rect x="20.83" y="132.19" class="st0" width="20.68" height="48.36"/>
	<polygon class="st0" points="196.32,146.02 168.28,101.17 146.55,101.17 146.55,180.55 166.46,180.55 166.55,132.28 195.79,180.55 
		216.52,180.55 216.52,101.17 196.32,101.17 	"/>
	<rect x="20.83" y="101.17" class="st0" width="20.68" height="20.68"/>
	<rect x="532.39" y="132.19" class="st0" width="20.68" height="48.36"/>
	<rect x="532.39" y="101.17" class="st0" width="20.68" height="20.68"/>
	<polygon class="st0" points="108.71,146.02 80.68,101.17 58.95,101.17 58.95,180.55 78.85,180.55 78.94,132.28 108.18,180.55 
		128.92,180.55 128.92,101.17 108.71,101.17 	"/>
	<path class="st0" d="M390.63,103.57l0.92-2.39h-22.27l-1.78,5.32c-1.04,2.96-2.07,5.92-3.04,8.87c-0.98,2.98-1.95,5.97-2.91,8.96
		l-9.19,27.53l-16.92-50.68h-22.11l0.91,2.39c0,0.01,0,0.01,0,0.02l27.42,71.79l0,0l1.98,5.19h17.38l1.26-3.27
		c0.04-0.09,0.08-0.17,0.12-0.27c0.24-0.6,0.46-1.16,0.64-1.65l27.59-71.79L390.63,103.57L390.63,103.57z"/>
	<path class="st0" d="M431.08,101.17h-17.95l-30.66,79.38h20.5l4.86-12.83h28.39l4.7,12.83h20.81L431.08,101.17z M413.83,150.56
		l8.24-24.43l8.18,24.43H413.83z"/>
	<polygon class="st0" points="456.65,101.17 456.65,121.85 477.6,121.85 477.6,180.55 498.28,180.55 498.28,121.85 519.24,121.85 
		519.24,101.17 	"/>
</g>
</svg>
