<svg width="727" height="246" viewBox="0 0 727 246" fill="none" xmlns="http://www.w3.org/2000/svg">
<g clip-path="url(#clip0_330_58)">
<path d="M23.8301 230.28H32.3701V227.83H23.8301V221.67H33.2201V219.19H20.8301V239.74H33.3201V237.26H23.8301V230.28Z" fill="white"/>
<path d="M54.5603 230.58C54.5603 231.34 54.5703 232.1 54.5903 232.86C54.6103 233.62 54.6503 234.38 54.6903 235.14H54.6203C54.3603 234.66 54.0703 234.17 53.7403 233.67C53.4103 233.17 53.0803 232.68 52.7303 232.2L43.3703 219.19H40.7603V239.74H43.6903V229.11C43.6903 228.2 43.6803 227.28 43.6603 226.37C43.6403 225.46 43.6003 224.54 43.5603 223.63H43.6303C43.9403 224.2 44.2603 224.77 44.6103 225.36C44.9603 225.92 45.2903 226.43 45.6203 226.89L54.8803 239.74H57.4903V219.2H54.5603V230.58Z" fill="white"/>
<path d="M70.4499 223.24C71.0999 222.59 71.8499 222.12 72.6999 221.84C73.5699 221.53 74.4799 221.38 75.4399 221.38C75.9199 221.38 76.3399 221.41 76.7099 221.45C77.0999 221.5 77.4699 221.56 77.8199 221.65C78.1899 221.74 78.5499 221.86 78.8999 222.01C79.2699 222.14 79.6599 222.3 80.0699 222.47L80.7899 220.12C80.0499 219.75 79.2499 219.46 78.3799 219.24C77.5099 219.02 76.3999 218.91 75.0499 218.91C73.6099 218.91 72.2899 219.15 71.0699 219.63C69.8599 220.08 68.7999 220.77 67.9099 221.68C67.0399 222.58 66.3599 223.68 65.8599 225.01C65.3599 226.32 65.1099 227.81 65.1099 229.48C65.1099 231.19 65.3599 232.71 65.8599 234.04C66.3799 235.34 67.0799 236.44 67.9499 237.33C68.8399 238.22 69.8799 238.89 71.0799 239.35C72.2699 239.8 73.5399 240.03 74.8899 240.03C76.1899 240.03 77.2899 239.94 78.1799 239.77C79.0899 239.59 79.9299 239.32 80.6899 238.95L80.0099 236.54C79.3099 236.87 78.6099 237.12 77.8899 237.29C77.1999 237.46 76.3099 237.55 75.2199 237.55C74.2799 237.55 73.3999 237.41 72.5699 237.13C71.7499 236.83 71.0199 236.36 70.3899 235.73C69.7799 235.1 69.2899 234.27 68.9199 233.25C68.5499 232.23 68.3699 230.98 68.3699 229.5C68.3699 228.04 68.5499 226.8 68.9199 225.78C69.3099 224.74 69.8199 223.89 70.4499 223.24Z" fill="white"/>
<path d="M102.74 221.57C101.89 220.68 100.88 220.01 99.7099 219.58C98.5299 219.13 97.2499 218.9 95.8599 218.9C94.4699 218.9 93.1799 219.13 91.9699 219.57C90.7999 220.02 89.7799 220.7 88.9099 221.59C88.0399 222.49 87.3599 223.59 86.8599 224.92C86.3599 226.22 86.1099 227.73 86.1099 229.45C86.1099 231.21 86.3499 232.75 86.8299 234.08C87.3099 235.38 87.9699 236.48 88.8199 237.37C89.6799 238.24 90.7099 238.9 91.8799 239.36C93.0599 239.79 94.3399 240.01 95.7299 240.01C97.1199 240.01 98.4099 239.79 99.5799 239.33C100.78 238.88 101.81 238.2 102.68 237.31C103.55 236.42 104.23 235.32 104.73 234.02C105.23 232.7 105.48 231.18 105.48 229.46C105.48 227.7 105.24 226.16 104.76 224.86C104.28 223.54 103.61 222.44 102.74 221.57ZM101.72 233.08C101.39 234.1 100.94 234.95 100.35 235.62C99.7899 236.29 99.1099 236.79 98.3299 237.12C97.5699 237.45 96.7399 237.61 95.8499 237.61C94.9599 237.61 94.1099 237.45 93.3099 237.12C92.5299 236.79 91.8499 236.29 91.2599 235.62C90.6799 234.95 90.2099 234.1 89.8599 233.08C89.5299 232.06 89.3699 230.85 89.3699 229.46C89.3699 228.07 89.5399 226.87 89.8499 225.84C90.1799 224.82 90.6199 223.97 91.1899 223.3C91.7499 222.63 92.4299 222.13 93.2099 221.8C93.9899 221.47 94.8299 221.31 95.7199 221.31C96.6099 221.31 97.4499 221.47 98.2299 221.8C99.0399 222.11 99.7299 222.6 100.32 223.27C100.91 223.92 101.36 224.76 101.69 225.78C102.04 226.8 102.21 228.03 102.21 229.46C102.21 230.85 102.05 232.06 101.72 233.08Z" fill="white"/>
<path d="M126.96 230.58C126.96 231.34 126.97 232.1 126.99 232.86C127.01 233.62 127.05 234.38 127.09 235.14H127.02C126.76 234.66 126.47 234.17 126.14 233.67C125.81 233.17 125.48 232.68 125.13 232.2L115.77 219.19H113.16V239.74H116.09V229.11C116.09 228.2 116.08 227.28 116.06 226.37C116.04 225.46 116 224.54 115.96 223.63H116.03C116.34 224.2 116.66 224.77 117.01 225.36C117.36 225.92 117.69 226.43 118.02 226.89L127.28 239.74H129.89V219.2H126.96V230.58Z" fill="white"/>
<path d="M136.38 221.73H142.67V239.73H145.67V221.73H152.09V219.19H136.38V221.73Z" fill="white"/>
<path d="M169.09 230.32C169.61 229.97 170.07 229.57 170.46 229.11C170.86 228.63 171.17 228.08 171.41 227.45C171.65 226.82 171.77 226.11 171.77 225.33C171.77 224.43 171.63 223.62 171.35 222.88C171.07 222.12 170.65 221.46 170.11 220.92C169.57 220.38 168.89 219.95 168.06 219.65C167.26 219.34 166.33 219.19 165.26 219.19H158.55V239.75H161.39V231.7H164.75L169.61 239.75H172.97L167.56 231.14C168.08 230.92 168.59 230.65 169.09 230.32ZM165.75 229.03C165.18 229.16 164.56 229.23 163.89 229.23H161.41V221.6H164.38C165.77 221.6 166.82 221.92 167.54 222.55C168.28 223.18 168.65 224.15 168.65 225.48C168.65 226.16 168.52 226.73 168.26 227.21C168.02 227.68 167.68 228.08 167.25 228.38C166.84 228.66 166.34 228.88 165.75 229.03Z" fill="white"/>
<path d="M195.2 221.57C194.35 220.68 193.34 220.01 192.17 219.58C190.99 219.13 189.71 218.9 188.32 218.9C186.93 218.9 185.63 219.13 184.42 219.57C183.25 220.02 182.23 220.7 181.36 221.59C180.49 222.49 179.81 223.59 179.31 224.92C178.81 226.22 178.56 227.73 178.56 229.45C178.56 231.21 178.8 232.75 179.28 234.08C179.76 235.38 180.42 236.48 181.27 237.37C182.14 238.24 183.17 238.9 184.34 239.36C185.52 239.79 186.8 240.01 188.19 240.01C189.58 240.01 190.87 239.79 192.04 239.33C193.24 238.88 194.27 238.2 195.14 237.31C196.01 236.42 196.69 235.32 197.19 234.02C197.69 232.7 197.94 231.18 197.94 229.46C197.94 227.7 197.7 226.16 197.22 224.86C196.74 223.54 196.07 222.44 195.2 221.57ZM194.18 233.08C193.85 234.1 193.4 234.95 192.81 235.62C192.25 236.29 191.57 236.79 190.79 237.12C190.03 237.45 189.2 237.61 188.31 237.61C187.42 237.61 186.57 237.45 185.77 237.12C184.99 236.79 184.31 236.29 183.72 235.62C183.14 234.95 182.67 234.1 182.32 233.08C181.99 232.06 181.83 230.85 181.83 229.46C181.83 228.07 181.99 226.87 182.31 225.84C182.64 224.82 183.08 223.97 183.65 223.3C184.21 222.63 184.89 222.13 185.67 221.8C186.45 221.47 187.29 221.31 188.18 221.31C189.07 221.31 189.91 221.47 190.69 221.8C191.5 222.11 192.19 222.6 192.78 223.27C193.37 223.92 193.82 224.76 194.15 225.78C194.5 226.8 194.67 228.03 194.67 229.46C194.67 230.85 194.51 232.06 194.18 233.08Z" fill="white"/>
<path d="M212.98 228.36L210.93 227.71C209.71 227.34 208.83 226.91 208.29 226.41C207.77 225.91 207.51 225.25 207.51 224.42C207.51 223.44 207.87 222.68 208.59 222.14C209.3 221.59 210.28 221.32 211.52 221.32C212.3 221.32 213.06 221.41 213.8 221.61C214.56 221.78 215.41 222.09 216.34 222.52L217.06 220.04C216.15 219.61 215.22 219.31 214.29 219.16C213.36 218.99 212.39 218.9 211.39 218.9C209.13 218.9 207.4 219.43 206.19 220.49C205.02 221.53 204.43 222.96 204.43 224.76C204.43 226.17 204.84 227.29 205.64 228.12C206.45 228.95 207.6 229.6 209.1 230.08L211.15 230.73C211.91 230.97 212.54 231.22 213.04 231.48C213.54 231.74 213.93 232.03 214.21 232.33C214.51 232.64 214.72 232.96 214.83 233.31C214.96 233.64 215.03 234 215.03 234.39C215.03 235.45 214.62 236.26 213.79 236.8C212.96 237.35 211.96 237.62 210.79 237.62C209.82 237.62 208.88 237.51 207.99 237.29C207.1 237.07 206.18 236.74 205.25 236.28L204.53 238.73C205.6 239.23 206.66 239.57 207.73 239.74C208.82 239.93 209.89 240.03 210.93 240.03C211.97 240.03 212.93 239.9 213.8 239.64C214.67 239.36 215.42 238.97 216.05 238.47C216.7 237.95 217.2 237.33 217.55 236.61C217.92 235.87 218.1 235.05 218.1 234.16C218.1 232.9 217.71 231.77 216.93 230.77C216.16 229.75 214.85 228.95 212.98 228.36Z" fill="white"/>
<path d="M253.02 243.28C252.54 243.43 252.08 243.51 251.65 243.51C250.91 243.51 250.24 243.42 249.63 243.25C249.02 243.1 248.44 242.93 247.87 242.73C247.3 242.54 246.74 242.35 246.17 242.18C245.63 242.03 245.03 241.95 244.38 241.95L248.81 239.47C250.89 238.3 252.41 236.91 253.34 235.3C254.27 233.69 254.74 231.74 254.74 229.46C254.74 227.7 254.5 226.16 254.02 224.86C253.54 223.54 252.87 222.44 252 221.57C251.15 220.68 250.14 220.01 248.97 219.58C247.79 219.13 246.51 218.9 245.12 218.9C243.73 218.9 242.44 219.13 241.24 219.58C240.07 220.03 239.05 220.71 238.18 221.6C237.31 222.5 236.63 223.6 236.13 224.93C235.63 226.23 235.38 227.74 235.38 229.46C235.38 231 235.56 232.38 235.93 233.6C236.32 234.82 236.86 235.86 237.53 236.73C238.23 237.58 239.05 238.28 239.98 238.82C240.93 239.34 241.99 239.69 243.14 239.86L238.12 242.76L239.36 245.01C239.92 244.68 240.48 244.43 241.02 244.26C241.59 244.09 242.15 244 242.72 244C243.44 244 244.15 244.09 244.87 244.29C245.58 244.5 246.31 244.73 247.05 244.97C247.79 245.23 248.53 245.45 249.27 245.65C250.03 245.87 250.79 245.98 251.55 245.98C252.18 245.98 252.85 245.89 253.57 245.69C254.31 245.49 254.98 245.2 255.59 244.81L254.42 242.63C253.99 242.93 253.52 243.15 253.02 243.28ZM242.35 237.26C241.59 236.91 240.93 236.39 240.36 235.69C239.82 234.99 239.39 234.13 239.09 233.11C238.78 232.07 238.63 230.85 238.63 229.46C238.63 228.07 238.8 226.87 239.11 225.84C239.44 224.82 239.88 223.97 240.45 223.3C241.01 222.63 241.69 222.13 242.47 221.8C243.25 221.47 244.09 221.31 244.98 221.31C245.87 221.31 246.71 221.47 247.49 221.8C248.3 222.11 248.99 222.6 249.58 223.27C250.17 223.92 250.62 224.76 250.95 225.78C251.3 226.8 251.47 228.03 251.47 229.46C251.47 230.81 251.29 232.01 250.92 233.05C250.58 234.07 250.1 234.94 249.49 235.66C248.88 236.36 248.17 236.89 247.37 237.26C246.57 237.61 245.72 237.78 244.83 237.78C243.94 237.78 243.11 237.61 242.35 237.26Z" fill="white"/>
<path d="M275.21 231.87C275.21 233.59 274.8 234.97 273.97 236.01C273.16 237.06 271.88 237.58 270.12 237.58C268.34 237.58 267.04 237.11 266.24 236.18C265.43 235.24 265.03 233.68 265.03 231.48V219.19H262.04V231.62C262.04 234.55 262.75 236.69 264.16 238.04C265.6 239.37 267.59 240.03 270.13 240.03C272.65 240.03 274.63 239.36 276.06 238.01C277.49 236.66 278.21 234.58 278.21 231.78V219.19H275.21V231.87Z" fill="white"/>
<path d="M289.74 230.28H298.28V227.83H289.74V221.67H299.13V219.19H286.74V239.74H299.23V237.26H289.74V230.28Z" fill="white"/>
<path d="M333.51 219.19L329.3 232.3C329.06 232.99 328.85 233.62 328.65 234.19C328.48 234.75 328.3 235.34 328.13 235.95H328.06C327.89 235.34 327.71 234.75 327.51 234.16C327.31 233.55 327.11 232.93 326.89 232.3L322.59 219.19H318.68L316.92 239.75H319.85L320.63 228.86C320.72 227.79 320.79 226.73 320.86 225.66C320.95 224.59 321.02 223.53 321.06 222.46H321.13C321.43 223.57 321.74 224.64 322.04 225.66C322.34 226.66 322.68 227.71 323.05 228.82L326.67 239.74H329.41L333.03 228.85C333.38 227.78 333.71 226.72 334.01 225.65C334.34 224.58 334.66 223.52 334.96 222.45H335.03C335.07 223.54 335.12 224.61 335.16 225.68C335.21 226.72 335.27 227.77 335.36 228.84L336.21 239.73H339.21L337.42 219.19H333.51Z" fill="white"/>
<path d="M360.41 231.87C360.41 233.59 360 234.97 359.17 236.01C358.36 237.06 357.08 237.58 355.32 237.58C353.54 237.58 352.24 237.11 351.44 236.18C350.63 235.24 350.23 233.68 350.23 231.48V219.19H347.24V231.62C347.24 234.55 347.95 236.69 349.36 238.04C350.8 239.37 352.79 240.03 355.33 240.03C357.85 240.03 359.83 239.36 361.26 238.01C362.69 236.66 363.41 234.58 363.41 231.78V219.19H360.41V231.87Z" fill="white"/>
<path d="M374.93 219.19H371.93V239.73H383.7V237.19H374.93V219.19Z" fill="white"/>
<path d="M385.5 221.73H391.79V239.73H394.79V221.73H401.21V219.19H385.5V221.73Z" fill="white"/>
<path d="M410.7 219.19H407.7V239.73H410.7V219.19Z" fill="white"/>
<path d="M431.08 220.82C430.45 220.27 429.7 219.87 428.83 219.61C427.96 219.33 427 219.19 425.93 219.19H419.47V239.74H422.47V231.78H425.54C426.65 231.78 427.66 231.65 428.57 231.39C429.48 231.13 430.28 230.74 430.95 230.22C431.63 229.69 432.15 229.04 432.52 228.26C432.89 227.45 433.07 226.51 433.07 225.42C433.07 224.42 432.9 223.54 432.55 222.78C432.2 221.99 431.71 221.34 431.08 220.82ZM429.51 227.41C429.23 227.91 428.84 228.3 428.34 228.58C427.86 228.87 427.28 229.06 426.58 229.17C425.88 229.28 425.13 229.33 424.33 229.33H422.47V221.6H425.24C425.83 221.6 426.4 221.67 426.97 221.8C427.54 221.93 428.04 222.15 428.47 222.45C428.9 222.76 429.25 223.16 429.51 223.66C429.79 224.13 429.93 224.73 429.93 225.45C429.93 226.24 429.79 226.89 429.51 227.41Z" fill="white"/>
<path d="M443.12 219.19H440.12V239.73H451.89V237.19H443.12V219.19Z" fill="white"/>
<path d="M461.58 219.19H458.58V239.73H461.58V219.19Z" fill="white"/>
<path d="M474.55 223.24C475.2 222.59 475.95 222.12 476.8 221.84C477.67 221.53 478.58 221.38 479.54 221.38C480.02 221.38 480.44 221.41 480.81 221.45C481.2 221.5 481.57 221.56 481.92 221.65C482.29 221.74 482.65 221.86 483 222.01C483.37 222.14 483.76 222.3 484.17 222.47L484.89 220.12C484.15 219.75 483.35 219.46 482.48 219.24C481.61 219.02 480.5 218.91 479.15 218.91C477.71 218.91 476.39 219.15 475.17 219.63C473.96 220.08 472.9 220.77 472.01 221.68C471.14 222.58 470.46 223.68 469.96 225.01C469.46 226.32 469.21 227.81 469.21 229.48C469.21 231.19 469.46 232.71 469.96 234.04C470.48 235.34 471.18 236.44 472.05 237.33C472.94 238.22 473.98 238.89 475.18 239.35C476.37 239.8 477.64 240.03 478.99 240.03C480.29 240.03 481.39 239.94 482.28 239.77C483.19 239.59 484.03 239.32 484.79 238.95L484.11 236.54C483.41 236.87 482.71 237.12 481.99 237.29C481.3 237.46 480.41 237.55 479.32 237.55C478.38 237.55 477.5 237.41 476.67 237.13C475.85 236.83 475.12 236.36 474.49 235.73C473.88 235.1 473.39 234.27 473.02 233.25C472.65 232.23 472.47 230.98 472.47 229.5C472.47 228.04 472.65 226.8 473.02 225.78C473.41 224.74 473.92 223.89 474.55 223.24Z" fill="white"/>
<path d="M497.89 219.19L489.59 239.73H492.69L494.91 234.02H503.36L505.61 239.73H508.74L500.56 219.19H497.89ZM502.49 231.65H495.74L497.14 228.1C497.51 227.12 497.85 226.21 498.18 225.36C498.51 224.51 498.83 223.63 499.13 222.72H499.2C499.5 223.63 499.81 224.52 500.11 225.39C500.41 226.26 500.75 227.17 501.12 228.1L502.49 231.65Z" fill="white"/>
<path d="M531.01 219.19L526.8 232.3C526.56 232.99 526.35 233.62 526.15 234.19C525.98 234.75 525.8 235.34 525.63 235.95H525.56C525.39 235.34 525.21 234.75 525.01 234.16C524.81 233.55 524.61 232.93 524.39 232.3L520.09 219.19H516.18L514.42 239.75H517.35L518.13 228.86C518.22 227.79 518.29 226.73 518.36 225.66C518.45 224.59 518.52 223.53 518.56 222.46H518.63C518.93 223.57 519.24 224.64 519.54 225.66C519.84 226.66 520.18 227.71 520.55 228.82L524.17 239.74H526.91L530.53 228.85C530.88 227.78 531.21 226.72 531.51 225.65C531.84 224.58 532.16 223.52 532.46 222.45H532.53C532.57 223.54 532.62 224.61 532.66 225.68C532.71 226.72 532.77 227.77 532.86 228.84L533.71 239.73H536.71L534.92 219.19H531.01Z" fill="white"/>
<path d="M560 223.24C560.65 222.59 561.4 222.12 562.25 221.84C563.12 221.53 564.03 221.38 564.99 221.38C565.47 221.38 565.89 221.41 566.26 221.45C566.65 221.5 567.02 221.56 567.37 221.65C567.74 221.74 568.1 221.86 568.45 222.01C568.82 222.14 569.21 222.3 569.62 222.47L570.34 220.12C569.6 219.75 568.8 219.46 567.93 219.24C567.06 219.02 565.95 218.91 564.6 218.91C563.16 218.91 561.84 219.15 560.62 219.63C559.41 220.08 558.35 220.77 557.46 221.68C556.59 222.58 555.91 223.68 555.41 225.01C554.91 226.32 554.66 227.81 554.66 229.48C554.66 231.19 554.91 232.71 555.41 234.04C555.93 235.34 556.63 236.44 557.5 237.33C558.39 238.22 559.43 238.89 560.63 239.35C561.82 239.8 563.09 240.03 564.44 240.03C565.74 240.03 566.84 239.94 567.73 239.77C568.64 239.59 569.48 239.32 570.24 238.95L569.56 236.54C568.86 236.87 568.16 237.12 567.44 237.29C566.75 237.46 565.86 237.55 564.77 237.55C563.83 237.55 562.95 237.41 562.12 237.13C561.3 236.83 560.57 236.36 559.94 235.73C559.33 235.1 558.84 234.27 558.47 233.25C558.1 232.23 557.92 230.98 557.92 229.5C557.92 228.04 558.1 226.8 558.47 225.78C558.86 224.74 559.37 223.89 560 223.24Z" fill="white"/>
<path d="M592.29 221.57C591.44 220.68 590.43 220.01 589.26 219.58C588.08 219.13 586.8 218.9 585.41 218.9C584.02 218.9 582.73 219.13 581.52 219.57C580.34 220.02 579.32 220.7 578.45 221.59C577.58 222.49 576.9 223.59 576.4 224.92C575.9 226.22 575.65 227.73 575.65 229.45C575.65 231.21 575.89 232.75 576.37 234.08C576.85 235.38 577.51 236.48 578.36 237.37C579.23 238.24 580.26 238.9 581.43 239.36C582.61 239.79 583.89 240.01 585.28 240.01C586.67 240.01 587.96 239.79 589.13 239.33C590.33 238.88 591.36 238.2 592.23 237.31C593.1 236.42 593.78 235.32 594.28 234.02C594.78 232.7 595.03 231.18 595.03 229.46C595.03 227.7 594.79 226.16 594.31 224.86C593.83 223.54 593.16 222.44 592.29 221.57ZM591.28 233.08C590.95 234.1 590.5 234.95 589.91 235.62C589.35 236.29 588.67 236.79 587.89 237.12C587.13 237.45 586.3 237.61 585.41 237.61C584.52 237.61 583.67 237.45 582.87 237.12C582.09 236.79 581.41 236.29 580.82 235.62C580.24 234.95 579.77 234.1 579.42 233.08C579.09 232.06 578.93 230.85 578.93 229.46C578.93 228.07 579.09 226.87 579.41 225.84C579.74 224.82 580.18 223.97 580.75 223.3C581.31 222.63 581.99 222.13 582.77 221.8C583.55 221.47 584.39 221.31 585.28 221.31C586.17 221.31 587.01 221.47 587.79 221.8C588.6 222.11 589.29 222.6 589.88 223.27C590.47 223.92 590.92 224.76 591.25 225.78C591.6 226.8 591.77 228.03 591.77 229.46C591.77 230.85 591.61 232.06 591.28 233.08Z" fill="white"/>
<path d="M616.51 230.58C616.51 231.34 616.52 232.1 616.54 232.86C616.56 233.62 616.6 234.38 616.64 235.14H616.57C616.31 234.66 616.02 234.17 615.69 233.67C615.37 233.17 615.03 232.68 614.68 232.2L605.32 219.19H602.71V239.74H605.64V229.11C605.64 228.2 605.63 227.28 605.61 226.37C605.59 225.46 605.55 224.54 605.51 223.63H605.58C605.89 224.2 606.21 224.77 606.56 225.36C606.91 225.92 607.24 226.43 607.57 226.89L616.83 239.74H619.44V219.2H616.51V230.58Z" fill="white"/>
<path d="M631.21 230.28H639.75V227.83H631.21V221.67H640.6V219.19H628.21V239.74H640.7V237.26H631.21V230.28Z" fill="white"/>
<path d="M662.79 219.19H659.5L654.35 227.21L649.43 219.19H646.01L652.56 229.3L645.71 239.73H649L654.35 231.38L659.66 239.73H663.12L656.04 229.3L662.79 219.19Z" fill="white"/>
<path d="M684.02 221.57C683.17 220.68 682.16 220.01 680.99 219.58C679.81 219.13 678.53 218.9 677.14 218.9C675.75 218.9 674.45 219.13 673.24 219.57C672.07 220.02 671.05 220.7 670.18 221.59C669.31 222.49 668.63 223.59 668.13 224.92C667.63 226.22 667.38 227.73 667.38 229.45C667.38 231.21 667.62 232.75 668.1 234.08C668.58 235.38 669.24 236.48 670.09 237.37C670.96 238.24 671.99 238.9 673.16 239.36C674.34 239.79 675.62 240.01 677.01 240.01C678.4 240.01 679.69 239.79 680.86 239.33C682.06 238.88 683.09 238.2 683.96 237.31C684.83 236.42 685.51 235.32 686.01 234.02C686.51 232.7 686.76 231.18 686.76 229.46C686.76 227.7 686.52 226.16 686.04 224.86C685.56 223.54 684.89 222.44 684.02 221.57ZM683 233.08C682.67 234.1 682.22 234.95 681.63 235.62C681.07 236.29 680.39 236.79 679.61 237.12C678.85 237.45 678.02 237.61 677.13 237.61C676.24 237.61 675.39 237.45 674.59 237.12C673.81 236.79 673.13 236.29 672.54 235.62C671.96 234.95 671.49 234.1 671.14 233.08C670.81 232.06 670.65 230.85 670.65 229.46C670.65 228.07 670.81 226.87 671.13 225.84C671.46 224.82 671.9 223.97 672.47 223.3C673.03 222.63 673.71 222.13 674.49 221.8C675.27 221.47 676.11 221.31 677 221.31C677.89 221.31 678.73 221.47 679.51 221.8C680.32 222.11 681.01 222.6 681.6 223.27C682.19 223.92 682.64 224.76 682.97 225.78C683.32 226.8 683.49 228.03 683.49 229.46C683.49 230.85 683.33 232.06 683 233.08Z" fill="white"/>
<path d="M673.95 215.48C674.15 215.2 674.47 215.06 674.93 215.06C675.19 215.06 675.48 215.14 675.78 215.29C676.09 215.42 676.41 215.58 676.76 215.78C677.11 215.95 677.48 216.12 677.87 216.27C678.28 216.4 678.71 216.47 679.17 216.47C679.62 216.47 680.01 216.38 680.34 216.18C680.69 215.96 680.97 215.69 681.19 215.36C681.43 215.01 681.6 214.63 681.71 214.22C681.82 213.78 681.87 213.34 681.87 212.88H680.24C680.2 213.25 680.08 213.59 679.88 213.92C679.71 214.25 679.4 214.41 678.97 214.41C678.62 214.41 678.3 214.33 677.99 214.18C677.68 214.03 677.37 213.86 677.04 213.69C676.74 213.52 676.4 213.35 676.03 213.2C675.68 213.05 675.28 212.97 674.82 212.97C673.82 212.97 673.1 213.31 672.64 214.01C672.21 214.7 671.99 215.55 671.99 216.55V216.56H673.62C673.67 216.12 673.78 215.76 673.95 215.48Z" fill="white"/>
<path d="M697.44 230.28H705.98V227.83H697.44V221.67H706.83V219.19H694.44V239.74H706.93V237.26H697.44V230.28Z" fill="white"/>
<path d="M721.72 228.36L719.67 227.71C718.45 227.34 717.57 226.91 717.03 226.41C716.51 225.91 716.25 225.25 716.25 224.42C716.25 223.44 716.61 222.68 717.33 222.14C718.04 221.59 719.02 221.32 720.26 221.32C721.04 221.32 721.8 221.41 722.54 221.61C723.3 221.78 724.15 222.09 725.08 222.52L725.8 220.04C724.89 219.61 723.96 219.31 723.03 219.16C722.1 218.99 721.13 218.9 720.13 218.9C717.87 218.9 716.14 219.43 714.93 220.49C713.76 221.53 713.17 222.96 713.17 224.76C713.17 226.17 713.58 227.29 714.38 228.12C715.19 228.95 716.34 229.6 717.84 230.08L719.89 230.73C720.65 230.97 721.28 231.22 721.78 231.48C722.28 231.74 722.67 232.03 722.95 232.33C723.25 232.64 723.46 232.96 723.57 233.31C723.7 233.64 723.77 234 723.77 234.39C723.77 235.45 723.36 236.26 722.53 236.8C721.7 237.35 720.7 237.62 719.53 237.62C718.56 237.62 717.62 237.51 716.73 237.29C715.84 237.07 714.92 236.74 713.99 236.28L713.27 238.73C714.34 239.23 715.4 239.57 716.47 239.74C717.56 239.93 718.63 240.03 719.67 240.03C720.71 240.03 721.67 239.9 722.54 239.64C723.41 239.36 724.16 238.97 724.79 238.47C725.44 237.95 725.94 237.33 726.29 236.61C726.66 235.87 726.84 235.05 726.84 234.16C726.84 232.9 726.45 231.77 725.67 230.77C724.9 229.75 723.59 228.95 721.72 228.36Z" fill="white"/>
<path d="M259.01 73.26C261.15 71.04 262.86 68.45 264.13 65.51C265.4 62.56 266.03 59.45 266.03 56.16C266.03 52.48 265.27 48.99 263.75 45.71C262.23 42.42 260.18 39.58 257.58 37.2C259.13 35.36 260.33 33.27 261.18 30.94C262.04 28.61 262.46 26.09 262.46 23.38C262.46 20.13 261.84 17.09 260.62 14.25C259.39 11.41 257.72 8.94002 255.61 6.82002C253.49 4.71002 251.02 3.04002 248.21 1.84002C245.39 0.63002 242.39 0.0200195 239.21 0.0200195H200.84V80.51H242.41C245.59 80.51 248.62 79.86 251.5 78.56C254.34 77.24 256.86 75.48 259.01 73.26ZM221.8 16H233.43C234.63 16 235.73 16.2 236.75 16.62C237.76 17.03 238.63 17.61 239.36 18.33C240.08 19.05 240.64 19.88 241.04 20.82C241.44 21.76 241.63 22.78 241.63 23.86C241.63 25.02 241.43 26.07 241.01 27.03C240.59 27.99 240.02 28.82 239.3 29.53C238.57 30.23 237.69 30.77 236.66 31.15C235.63 31.53 234.49 31.71 233.26 31.71H221.8V16ZM243.88 58.7C243.47 59.79 242.87 60.76 242.12 61.6C241.36 62.45 240.47 63.13 239.46 63.63C238.45 64.14 237.34 64.39 236.15 64.39H221.8V46.29H236.14C237.33 46.29 238.44 46.56 239.47 47.1C240.5 47.65 241.39 48.34 242.13 49.19C242.87 50.04 243.45 51.01 243.87 52.09C244.28 53.17 244.5 54.25 244.5 55.34C244.51 56.5 244.3 57.62 243.88 58.7Z" fill="#FF00FD"/>
<path d="M68.7401 78.11C68.7401 78.12 68.7501 78.12 68.7501 78.13V80.49H89.7201V0.0100098H68.7501V2.38001C68.7501 2.39001 68.7401 2.39001 68.7401 2.40001V28.14H41.8001V0.0100098H20.8301V80.5H41.8001V47.32H68.7401V78.11Z" fill="#FF00FD"/>
<path d="M168.95 74.4C172.1 71.78 174.6 68.32 176.46 64.02C178.32 59.72 179.26 54.41 179.26 48.09V0.0100098H158.29V2.38001C158.29 2.39001 158.28 2.39001 158.28 2.40001V48.39C158.28 50.78 157.93 52.9 157.22 54.74C156.51 56.58 155.55 58.13 154.34 59.38C153.13 60.62 151.72 61.57 150.11 62.19C148.5 62.83 146.79 63.14 144.98 63.14C143.24 63.14 141.57 62.87 139.95 62.33C138.34 61.78 136.92 60.93 135.72 59.75C134.5 58.57 133.52 57.05 132.78 55.19C132.04 53.33 131.67 51.06 131.67 48.38V2.40001C131.67 2.39001 131.66 2.39001 131.66 2.38001V0.0100098H110.69V48.09C110.69 54.3 111.63 59.55 113.49 63.84C115.35 68.12 117.85 71.59 121 74.24C124.14 76.9 127.79 78.82 131.95 79.99C136.1 81.16 140.46 81.75 145.01 81.75C149.56 81.75 153.9 81.19 158.04 80.05C162.17 78.9 165.81 77.02 168.95 74.4Z" fill="#FF00FD"/>
<path d="M20.8299 80.49H0.149902V101.17H20.8299V80.49Z" fill="#FF00FD"/>
<path d="M310.58 130.07C309.6 126.6 308.22 123.34 306.46 120.29C304.69 117.24 302.56 114.47 300.07 111.97C297.58 109.48 294.82 107.35 291.78 105.58C288.75 103.81 285.49 102.45 281.99 101.46C278.5 100.48 274.88 99.99 271.13 99.99C267.35 99.99 263.73 100.48 260.25 101.46C256.78 102.44 253.52 103.81 250.49 105.58C247.46 107.35 244.7 109.48 242.22 111.97C239.74 114.47 237.61 117.23 235.83 120.29C234.05 123.34 232.67 126.6 231.71 130.07C230.75 133.54 230.27 137.17 230.27 140.95C230.27 144.73 230.76 148.35 231.71 151.83C232.68 155.3 234.05 158.55 235.83 161.56C237.6 164.57 239.74 167.31 242.22 169.79C244.7 172.27 247.46 174.39 250.49 176.18C253.53 177.96 256.78 179.34 260.25 180.3C263.73 181.27 267.36 181.74 271.13 181.74C274.88 181.74 278.5 181.26 281.99 180.3C285.49 179.34 288.75 177.97 291.78 176.18C294.82 174.4 297.58 172.27 300.07 169.79C302.57 167.31 304.7 164.57 306.46 161.56C308.22 158.55 309.6 155.3 310.58 151.83C311.55 148.35 312.05 144.73 312.05 140.95C312.05 137.17 311.55 133.54 310.58 130.07ZM289.86 149.17C288.86 151.74 287.47 153.97 285.67 155.89C283.88 157.8 281.74 159.29 279.27 160.38C276.8 161.47 274.08 162.01 271.13 162.01C268.18 162.01 265.47 161.47 263.02 160.38C260.56 159.29 258.44 157.8 256.63 155.89C254.84 153.98 253.44 151.74 252.45 149.17C251.45 146.61 250.95 143.85 250.95 140.89C250.95 137.97 251.45 135.22 252.45 132.63C253.44 130.05 254.84 127.79 256.63 125.87C258.43 123.95 260.55 122.42 263.02 121.32C265.47 120.22 268.18 119.67 271.13 119.67C274.09 119.67 276.8 120.23 279.27 121.32C281.74 122.42 283.88 123.95 285.67 125.87C287.47 127.79 288.86 130.05 289.86 132.63C290.86 135.21 291.36 137.96 291.36 140.89C291.36 143.85 290.86 146.61 289.86 149.17Z" fill="#FF00FD"/>
<path d="M41.5101 132.19H20.8301V180.55H41.5101V132.19Z" fill="#FF00FD"/>
<path d="M196.32 146.02L168.28 101.17H146.55V180.55H166.46L166.55 132.28L195.79 180.55H216.52V101.17H196.32V146.02Z" fill="#FF00FD"/>
<path d="M41.5101 101.17H20.8301V121.85H41.5101V101.17Z" fill="#FF00FD"/>
<path d="M553.07 132.19H532.39V180.55H553.07V132.19Z" fill="#FF00FD"/>
<path d="M553.07 101.17H532.39V121.85H553.07V101.17Z" fill="#FF00FD"/>
<path d="M108.71 146.02L80.6797 101.17H58.9497V180.55H78.8497L78.9397 132.28L108.18 180.55H128.92V101.17H108.71V146.02Z" fill="#FF00FD"/>
<path d="M390.63 103.57L391.55 101.18H369.28L367.5 106.5C366.46 109.46 365.43 112.42 364.46 115.37C363.48 118.35 362.51 121.34 361.55 124.33L352.36 151.86L335.44 101.18H313.33L314.24 103.57C314.24 103.58 314.24 103.58 314.24 103.59L341.66 175.38L343.64 180.57H361.02L362.28 177.3C362.32 177.21 362.36 177.13 362.4 177.03C362.64 176.43 362.86 175.87 363.04 175.38L390.63 103.59V103.57Z" fill="#FF00FD"/>
<path d="M431.08 101.17H413.13L382.47 180.55H402.97L407.83 167.72H436.22L440.92 180.55H461.73L431.08 101.17ZM413.83 150.56L422.07 126.13L430.25 150.56H413.83Z" fill="#FF00FD"/>
<path d="M456.65 101.17V121.85H477.6V180.55H498.28V121.85H519.24V101.17H456.65Z" fill="#FF00FD"/>
</g>
<defs>
<clipPath id="clip0_330_58">
<rect width="727" height="246" fill="white"/>
</clipPath>
</defs>
</svg>
