<svg width="214" height="131" viewBox="0 0 166 81" fill="none" xmlns="http://www.w3.org/2000/svg">
<path d="M52.0599 0.169922H31.3799V37.3499H52.0599V0.169922Z" fill="currentColor"/>
<path d="M77.0298 19.2898C75.2598 16.2398 73.1298 13.4698 70.6398 10.9698C70.0698 10.3998 69.4798 9.85982 68.8898 9.31982L55.5998 24.2398C55.8198 24.4498 56.0398 24.6498 56.2498 24.8698C58.0498 26.7898 59.4398 29.0498 60.4398 31.6298C61.4398 34.2098 61.9398 36.9598 61.9398 39.8898C61.9398 42.8498 61.4398 45.6098 60.4398 48.1698C59.4398 50.7398 58.0498 52.9698 56.2498 54.8898C54.4598 56.7998 52.3198 58.2898 49.8498 59.3798C47.3798 60.4698 44.6598 61.0098 41.7098 61.0098C38.7598 61.0098 36.0498 60.4698 33.5998 59.3798C31.1398 58.2898 29.0098 56.7998 27.2098 54.8898C25.4198 52.9798 24.0198 50.7398 23.0298 48.1698C22.0298 45.6098 21.5298 42.8498 21.5298 39.8898C21.5298 36.9698 22.0298 34.2198 23.0298 31.6298C24.0198 29.0498 25.4198 26.7898 27.2098 24.8698C27.3898 24.6798 27.5898 24.4998 27.7798 24.3198L14.4398 9.41982C13.8798 9.91982 13.3198 10.4398 12.7898 10.9698C10.3098 13.4698 8.17984 16.2298 6.39984 19.2898C4.61984 22.3398 3.23985 25.5998 2.27985 29.0698C1.31985 32.5398 0.839844 36.1698 0.839844 39.9498C0.839844 43.7298 1.32985 47.3498 2.27985 50.8298C3.24985 54.2998 4.61984 57.5498 6.39984 60.5598C8.16984 63.5698 10.3098 66.3098 12.7898 68.7898C15.2698 71.2698 18.0298 73.3898 21.0598 75.1798C24.0998 76.9598 27.3498 78.3398 30.8198 79.2998C34.2998 80.2698 37.9298 80.7398 41.6998 80.7398C45.4498 80.7398 49.0698 80.2598 52.5598 79.2998C56.0598 78.3398 59.3198 76.9698 62.3498 75.1798C65.3898 73.3998 68.1498 71.2698 70.6398 68.7898C73.1398 66.3098 75.2698 63.5698 77.0298 60.5598C78.7898 57.5498 80.1698 54.2998 81.1498 50.8298C82.1198 47.3498 82.6198 43.7298 82.6198 39.9498C82.6198 36.1698 82.1198 32.5498 81.1498 29.0698C80.1698 25.5898 78.7898 22.3298 77.0298 19.2898Z" fill="currentColor"/>
<path d="M145.64 0.169922V45.0199L117.61 0.169922H95.8799V79.5499H115.78L115.87 31.2799L145.11 79.5499H165.85V0.169922H145.64Z" fill="currentColor"/>
</svg>
