<?xml version="1.0" encoding="utf-8"?>
<!-- Generator: Adobe Illustrator 27.3.1, SVG Export Plug-In . SVG Version: 6.00 Build 0)  -->
<svg version="1.1" id="Camada_1" xmlns="http://www.w3.org/2000/svg" xmlns:xlink="http://www.w3.org/1999/xlink" x="0px" y="0px"
	 viewBox="0 0 727 246" style="enable-background:new 0 0 727 246;" xml:space="preserve">
<style type="text/css">
	.st0{fill:#FFFFFF;}
</style>
<path class="st0" d="M23.8,230.3h8.5v-2.4h-8.5v-6.2h9.4v-2.5H20.8v20.5h12.5v-2.5h-9.5V230.3z M54.6,230.6c0,0.8,0,1.5,0,2.3
	c0,0.8,0.1,1.5,0.1,2.3h-0.1c-0.3-0.5-0.5-1-0.9-1.5s-0.7-1-1-1.5l-9.4-13h-2.6v20.5h2.9v-10.6c0-0.9,0-1.8,0-2.7
	c0-0.9-0.1-1.8-0.1-2.7h0.1c0.3,0.6,0.6,1.1,1,1.7c0.4,0.6,0.7,1.1,1,1.5l9.3,12.9h2.6v-20.5h-2.9V230.6z M70.5,223.2
	c0.7-0.6,1.4-1.1,2.2-1.4c0.9-0.3,1.8-0.5,2.7-0.5c0.5,0,0.9,0,1.3,0.1c0.4,0,0.8,0.1,1.1,0.2c0.4,0.1,0.7,0.2,1.1,0.4
	c0.4,0.1,0.8,0.3,1.2,0.5l0.7-2.4c-0.7-0.4-1.5-0.7-2.4-0.9c-0.9-0.2-2-0.3-3.3-0.3c-1.4,0-2.8,0.2-4,0.7c-1.2,0.5-2.3,1.1-3.2,2
	c-0.9,0.9-1.6,2-2.1,3.3c-0.5,1.3-0.8,2.8-0.8,4.5c0,1.7,0.2,3.2,0.8,4.6c0.5,1.3,1.2,2.4,2.1,3.3c0.9,0.9,1.9,1.6,3.1,2
	c1.2,0.4,2.5,0.7,3.8,0.7c1.3,0,2.4-0.1,3.3-0.3c0.9-0.2,1.8-0.5,2.5-0.8l-0.7-2.4c-0.7,0.3-1.4,0.6-2.1,0.8
	c-0.7,0.2-1.6,0.3-2.7,0.3c-0.9,0-1.8-0.1-2.7-0.4c-0.8-0.3-1.5-0.8-2.2-1.4c-0.6-0.6-1.1-1.5-1.5-2.5s-0.5-2.3-0.5-3.8
	c0-1.5,0.2-2.7,0.5-3.7C69.3,224.7,69.8,223.9,70.5,223.2z M102.7,221.6c-0.8-0.9-1.9-1.6-3-2c-1.2-0.4-2.5-0.7-3.9-0.7
	c-1.4,0-2.7,0.2-3.9,0.7c-1.2,0.5-2.2,1.1-3.1,2c-0.9,0.9-1.6,2-2.1,3.3c-0.5,1.3-0.8,2.8-0.8,4.5c0,1.8,0.2,3.3,0.7,4.6
	c0.5,1.3,1.1,2.4,2,3.3c0.9,0.9,1.9,1.5,3.1,2c1.2,0.4,2.5,0.6,3.8,0.6c1.4,0,2.7-0.2,3.9-0.7c1.2-0.4,2.2-1.1,3.1-2
	c0.9-0.9,1.5-2,2-3.3c0.5-1.3,0.8-2.8,0.8-4.6c0-1.8-0.2-3.3-0.7-4.6C104.3,223.5,103.6,222.4,102.7,221.6z M101.7,233.1
	c-0.3,1-0.8,1.9-1.4,2.5c-0.6,0.7-1.2,1.2-2,1.5c-0.8,0.3-1.6,0.5-2.5,0.5c-0.9,0-1.7-0.2-2.5-0.5c-0.8-0.3-1.5-0.8-2-1.5
	c-0.6-0.7-1-1.5-1.4-2.5c-0.3-1-0.5-2.2-0.5-3.6c0-1.4,0.2-2.6,0.5-3.6c0.3-1,0.8-1.9,1.3-2.5c0.6-0.7,1.2-1.2,2-1.5
	c0.8-0.3,1.6-0.5,2.5-0.5c0.9,0,1.7,0.2,2.5,0.5c0.8,0.3,1.5,0.8,2.1,1.5c0.6,0.6,1,1.5,1.4,2.5c0.4,1,0.5,2.2,0.5,3.7
	C102.2,230.8,102,232.1,101.7,233.1z M127,230.6c0,0.8,0,1.5,0,2.3c0,0.8,0.1,1.5,0.1,2.3H127c-0.3-0.5-0.5-1-0.9-1.5s-0.7-1-1-1.5
	l-9.4-13h-2.6h0v20.5h2.9v-10.6c0-0.9,0-1.8,0-2.7c0-0.9-0.1-1.8-0.1-2.7h0.1c0.3,0.6,0.6,1.1,1,1.7c0.3,0.6,0.7,1.1,1,1.5l9.3,12.9
	h2.6v-20.5H127V230.6z M136.4,221.7h6.3v18h3v-18h6.4v-2.5h-15.7V221.7z M169.1,230.3c0.5-0.3,1-0.8,1.4-1.2c0.4-0.5,0.7-1,1-1.7
	c0.2-0.6,0.4-1.3,0.4-2.1c0-0.9-0.1-1.7-0.4-2.5c-0.3-0.8-0.7-1.4-1.2-2c-0.5-0.5-1.2-1-2-1.3c-0.8-0.3-1.7-0.5-2.8-0.5h-6.7h0v20.6
	h2.8v-8h3.4l4.9,8h3.4l-5.4-8.6C168.1,230.9,168.6,230.7,169.1,230.3z M165.8,229c-0.6,0.1-1.2,0.2-1.9,0.2h-2.5h0v-7.6h3
	c1.4,0,2.4,0.3,3.2,0.9c0.7,0.6,1.1,1.6,1.1,2.9c0,0.7-0.1,1.2-0.4,1.7c-0.2,0.5-0.6,0.9-1,1.2C166.8,228.7,166.3,228.9,165.8,229z
	 M195.2,221.6c-0.8-0.9-1.9-1.6-3-2c-1.2-0.4-2.5-0.7-3.9-0.7s-2.7,0.2-3.9,0.7c-1.2,0.5-2.2,1.1-3.1,2c-0.9,0.9-1.5,2-2,3.3
	c-0.5,1.3-0.8,2.8-0.8,4.5c0,1.8,0.2,3.3,0.7,4.6c0.5,1.3,1.1,2.4,2,3.3c0.9,0.9,1.9,1.5,3.1,2c1.2,0.4,2.5,0.6,3.8,0.6
	s2.7-0.2,3.9-0.7c1.2-0.4,2.2-1.1,3.1-2c0.9-0.9,1.5-2,2-3.3c0.5-1.3,0.8-2.8,0.8-4.6c0-1.8-0.2-3.3-0.7-4.6
	C196.7,223.5,196.1,222.4,195.2,221.6z M194.2,233.1c-0.3,1-0.8,1.9-1.4,2.5c-0.6,0.7-1.2,1.2-2,1.5c-0.8,0.3-1.6,0.5-2.5,0.5
	s-1.7-0.2-2.5-0.5c-0.8-0.3-1.5-0.8-2-1.5c-0.6-0.7-1-1.5-1.4-2.5c-0.3-1-0.5-2.2-0.5-3.6c0-1.4,0.2-2.6,0.5-3.6
	c0.3-1,0.8-1.9,1.3-2.5c0.6-0.7,1.2-1.2,2-1.5c0.8-0.3,1.6-0.5,2.5-0.5c0.9,0,1.7,0.2,2.5,0.5c0.8,0.3,1.5,0.8,2.1,1.5
	c0.6,0.6,1,1.5,1.4,2.5c0.3,1,0.5,2.2,0.5,3.7C194.7,230.8,194.5,232.1,194.2,233.1z M213,228.4l-2.1-0.6c-1.2-0.4-2.1-0.8-2.6-1.3
	c-0.5-0.5-0.8-1.2-0.8-2c0-1,0.4-1.7,1.1-2.3c0.7-0.6,1.7-0.8,2.9-0.8c0.8,0,1.5,0.1,2.3,0.3c0.8,0.2,1.6,0.5,2.5,0.9l0.7-2.5
	c-0.9-0.4-1.8-0.7-2.8-0.9c-0.9-0.2-1.9-0.3-2.9-0.3c-2.3,0-4,0.5-5.2,1.6c-1.2,1-1.8,2.5-1.8,4.3c0,1.4,0.4,2.5,1.2,3.4
	c0.8,0.8,2,1.5,3.5,2l2,0.6c0.8,0.2,1.4,0.5,1.9,0.8s0.9,0.5,1.2,0.9c0.3,0.3,0.5,0.6,0.6,1c0.1,0.3,0.2,0.7,0.2,1.1
	c0,1.1-0.4,1.9-1.2,2.4c-0.8,0.5-1.8,0.8-3,0.8c-1,0-1.9-0.1-2.8-0.3c-0.9-0.2-1.8-0.5-2.7-1l-0.7,2.4c1.1,0.5,2.1,0.8,3.2,1
	c1.1,0.2,2.2,0.3,3.2,0.3c1,0,2-0.1,2.9-0.4c0.9-0.3,1.6-0.7,2.2-1.2c0.7-0.5,1.2-1.1,1.5-1.9c0.4-0.7,0.6-1.6,0.6-2.5
	c0-1.3-0.4-2.4-1.2-3.4C216.2,229.8,214.9,229,213,228.4z M253,243.3c-0.5,0.2-0.9,0.2-1.4,0.2c-0.7,0-1.4-0.1-2-0.3
	c-0.6-0.2-1.2-0.3-1.8-0.5c-0.6-0.2-1.1-0.4-1.7-0.5c-0.5-0.2-1.1-0.2-1.8-0.2l4.4-2.5c2.1-1.2,3.6-2.6,4.5-4.2s1.4-3.6,1.4-5.8
	c0-1.8-0.2-3.3-0.7-4.6c-0.5-1.3-1.2-2.4-2-3.3c-0.8-0.9-1.9-1.6-3-2c-1.2-0.4-2.5-0.7-3.9-0.7s-2.7,0.2-3.9,0.7
	c-1.2,0.4-2.2,1.1-3.1,2c-0.9,0.9-1.5,2-2,3.3c-0.5,1.3-0.8,2.8-0.8,4.5c0,1.5,0.2,2.9,0.5,4.1c0.4,1.2,0.9,2.3,1.6,3.1
	c0.7,0.9,1.5,1.6,2.4,2.1c1,0.5,2,0.9,3.2,1l-5,2.9l1.2,2.2c0.6-0.3,1.1-0.6,1.7-0.8c0.6-0.2,1.1-0.3,1.7-0.3c0.7,0,1.4,0.1,2.1,0.3
	c0.7,0.2,1.4,0.4,2.2,0.7c0.7,0.3,1.5,0.5,2.2,0.7c0.8,0.2,1.5,0.3,2.3,0.3c0.6,0,1.3-0.1,2-0.3c0.7-0.2,1.4-0.5,2-0.9l-1.2-2.2
	C254,242.9,253.5,243.1,253,243.3z M242.4,237.3c-0.8-0.4-1.4-0.9-2-1.6c-0.5-0.7-1-1.6-1.3-2.6c-0.3-1-0.5-2.3-0.5-3.6
	c0-1.4,0.2-2.6,0.5-3.6c0.3-1,0.8-1.9,1.3-2.5c0.6-0.7,1.2-1.2,2-1.5c0.8-0.3,1.6-0.5,2.5-0.5c0.9,0,1.7,0.2,2.5,0.5
	c0.8,0.3,1.5,0.8,2.1,1.5c0.6,0.6,1,1.5,1.4,2.5c0.3,1,0.5,2.2,0.5,3.7c0,1.3-0.2,2.5-0.6,3.6c-0.3,1-0.8,1.9-1.4,2.6
	c-0.6,0.7-1.3,1.2-2.1,1.6c-0.8,0.3-1.6,0.5-2.5,0.5S243.1,237.6,242.4,237.3z M275.2,231.9c0,1.7-0.4,3.1-1.2,4.1
	c-0.8,1.1-2.1,1.6-3.9,1.6c-1.8,0-3.1-0.5-3.9-1.4c-0.8-0.9-1.2-2.5-1.2-4.7v-12.3h-3v12.4c0,2.9,0.7,5.1,2.1,6.4c1.4,1.3,3.4,2,6,2
	c2.5,0,4.5-0.7,5.9-2c1.4-1.3,2.2-3.4,2.2-6.2v-12.6h-3V231.9z M289.7,230.3h8.5v-2.4h-8.5v-6.2h9.4v-2.5h-12.4v20.5h12.5v-2.5h-9.5
	V230.3z M333.5,219.2l-4.2,13.1c-0.2,0.7-0.5,1.3-0.7,1.9c-0.2,0.6-0.3,1.1-0.5,1.8h-0.1c-0.2-0.6-0.3-1.2-0.5-1.8
	c-0.2-0.6-0.4-1.2-0.6-1.9l-4.3-13.1h-3.9l-1.8,20.6h2.9l0.8-10.9c0.1-1.1,0.2-2.1,0.2-3.2c0.1-1.1,0.2-2.1,0.2-3.2h0.1
	c0.3,1.1,0.6,2.2,0.9,3.2c0.3,1,0.6,2.1,1,3.2l3.6,10.9h2.7l3.6-10.9c0.4-1.1,0.7-2.1,1-3.2c0.3-1.1,0.7-2.1,1-3.2h0.1
	c0,1.1,0.1,2.2,0.1,3.2c0,1,0.1,2.1,0.2,3.2l0.8,10.9h3l-1.8-20.5H333.5z M360.4,231.9c0,1.7-0.4,3.1-1.2,4.1
	c-0.8,1.1-2.1,1.6-3.9,1.6c-1.8,0-3.1-0.5-3.9-1.4c-0.8-0.9-1.2-2.5-1.2-4.7v-12.3h-3v12.4c0,2.9,0.7,5.1,2.1,6.4c1.4,1.3,3.4,2,6,2
	c2.5,0,4.5-0.7,5.9-2c1.4-1.3,2.2-3.4,2.2-6.2v-12.6h-3V231.9z M374.9,219.2h-3v20.5h11.8v-2.5h-8.8V219.2z M385.5,221.7h6.3v18h3
	v-18h6.4v-2.5h-15.7V221.7z M407.7,239.7h3v-20.5h-3V239.7z M431.1,220.8c-0.6-0.5-1.4-1-2.2-1.2c-0.9-0.3-1.8-0.4-2.9-0.4h-6.5h0
	v20.5h3v-8h3.1c1.1,0,2.1-0.1,3-0.4c0.9-0.3,1.7-0.7,2.4-1.2c0.7-0.5,1.2-1.2,1.6-2c0.4-0.8,0.5-1.8,0.5-2.8c0-1-0.2-1.9-0.5-2.6
	C432.2,222,431.7,221.3,431.1,220.8z M429.5,227.4c-0.3,0.5-0.7,0.9-1.2,1.2c-0.5,0.3-1.1,0.5-1.8,0.6s-1.5,0.2-2.2,0.2h-1.9v-7.7
	h2.8c0.6,0,1.2,0.1,1.7,0.2s1.1,0.3,1.5,0.7c0.4,0.3,0.8,0.7,1,1.2c0.3,0.5,0.4,1.1,0.4,1.8C429.9,226.2,429.8,226.9,429.5,227.4z
	 M443.1,219.2h-3v20.5h11.8v-2.5h-8.8V219.2z M458.6,239.7h3v-20.5h-3V239.7z M474.6,223.2c0.6-0.6,1.4-1.1,2.2-1.4
	c0.9-0.3,1.8-0.5,2.7-0.5c0.5,0,0.9,0,1.3,0.1c0.4,0,0.8,0.1,1.1,0.2c0.4,0.1,0.7,0.2,1.1,0.4c0.4,0.1,0.8,0.3,1.2,0.5l0.7-2.4
	c-0.7-0.4-1.5-0.7-2.4-0.9c-0.9-0.2-2-0.3-3.3-0.3c-1.4,0-2.8,0.2-4,0.7c-1.2,0.5-2.3,1.1-3.2,2c-0.9,0.9-1.5,2-2,3.3
	c-0.5,1.3-0.8,2.8-0.8,4.5c0,1.7,0.2,3.2,0.8,4.6c0.5,1.3,1.2,2.4,2.1,3.3c0.9,0.9,1.9,1.6,3.1,2c1.2,0.4,2.5,0.7,3.8,0.7
	c1.3,0,2.4-0.1,3.3-0.3c0.9-0.2,1.8-0.5,2.5-0.8l-0.7-2.4c-0.7,0.3-1.4,0.6-2.1,0.8c-0.7,0.2-1.6,0.3-2.7,0.3
	c-0.9,0-1.8-0.1-2.6-0.4c-0.8-0.3-1.5-0.8-2.2-1.4c-0.6-0.6-1.1-1.5-1.5-2.5s-0.5-2.3-0.5-3.8c0-1.5,0.2-2.7,0.5-3.7
	C473.4,224.7,473.9,223.9,474.6,223.2z M497.9,219.2l-8.3,20.5h3.1l2.2-5.7h8.5l2.2,5.7h3.1l-8.2-20.5H497.9z M502.5,231.6h-6.8
	l1.4-3.5c0.4-1,0.7-1.9,1-2.7c0.3-0.9,0.7-1.7,1-2.6h0.1c0.3,0.9,0.6,1.8,0.9,2.7c0.3,0.9,0.6,1.8,1,2.7L502.5,231.6z M531,219.2
	l-4.2,13.1c-0.2,0.7-0.5,1.3-0.7,1.9c-0.2,0.6-0.4,1.1-0.5,1.8h-0.1c-0.2-0.6-0.3-1.2-0.5-1.8c-0.2-0.6-0.4-1.2-0.6-1.9l-4.3-13.1
	h-3.9l-1.8,20.6h2.9l0.8-10.9c0.1-1.1,0.2-2.1,0.2-3.2c0.1-1.1,0.2-2.1,0.2-3.2h0.1c0.3,1.1,0.6,2.2,0.9,3.2c0.3,1,0.6,2.1,1,3.2
	l3.6,10.9h2.7l3.6-10.9c0.3-1.1,0.7-2.1,1-3.2c0.3-1.1,0.7-2.1,1-3.2h0.1c0,1.1,0.1,2.2,0.1,3.2c0,1,0.1,2.1,0.2,3.2l0.8,10.9h3
	l-1.8-20.5H531z M560,223.2c0.7-0.6,1.4-1.1,2.2-1.4c0.9-0.3,1.8-0.5,2.7-0.5c0.5,0,0.9,0,1.3,0.1c0.4,0,0.8,0.1,1.1,0.2
	c0.4,0.1,0.7,0.2,1.1,0.4c0.4,0.1,0.8,0.3,1.2,0.5l0.7-2.4c-0.7-0.4-1.5-0.7-2.4-0.9c-0.9-0.2-2-0.3-3.3-0.3c-1.4,0-2.8,0.2-4,0.7
	c-1.2,0.5-2.3,1.1-3.2,2c-0.9,0.9-1.5,2-2,3.3c-0.5,1.3-0.8,2.8-0.8,4.5c0,1.7,0.2,3.2,0.8,4.6c0.5,1.3,1.2,2.4,2.1,3.3
	c0.9,0.9,1.9,1.6,3.1,2c1.2,0.4,2.5,0.7,3.8,0.7c1.3,0,2.4-0.1,3.3-0.3c0.9-0.2,1.8-0.5,2.5-0.8l-0.7-2.4c-0.7,0.3-1.4,0.6-2.1,0.8
	c-0.7,0.2-1.6,0.3-2.7,0.3c-0.9,0-1.8-0.1-2.7-0.4c-0.8-0.3-1.5-0.8-2.2-1.4c-0.6-0.6-1.1-1.5-1.5-2.5s-0.5-2.3-0.5-3.8
	c0-1.5,0.2-2.7,0.5-3.7C558.9,224.7,559.4,223.9,560,223.2z M592.3,221.6c-0.9-0.9-1.9-1.6-3-2c-1.2-0.4-2.5-0.7-3.8-0.7
	c-1.4,0-2.7,0.2-3.9,0.7c-1.2,0.5-2.2,1.1-3.1,2c-0.9,0.9-1.5,2-2,3.3c-0.5,1.3-0.8,2.8-0.8,4.5c0,1.8,0.2,3.3,0.7,4.6
	c0.5,1.3,1.1,2.4,2,3.3c0.9,0.9,1.9,1.5,3.1,2c1.2,0.4,2.5,0.6,3.8,0.6s2.7-0.2,3.8-0.7c1.2-0.4,2.2-1.1,3.1-2c0.9-0.9,1.5-2,2-3.3
	c0.5-1.3,0.8-2.8,0.8-4.6c0-1.8-0.2-3.3-0.7-4.6C593.8,223.5,593.2,222.4,592.3,221.6z M591.3,233.1c-0.3,1-0.8,1.9-1.4,2.5
	c-0.6,0.7-1.2,1.2-2,1.5c-0.8,0.3-1.6,0.5-2.5,0.5s-1.7-0.2-2.5-0.5c-0.8-0.3-1.5-0.8-2-1.5c-0.6-0.7-1.1-1.5-1.4-2.5
	c-0.3-1-0.5-2.2-0.5-3.6c0-1.4,0.2-2.6,0.5-3.6c0.3-1,0.8-1.9,1.3-2.5c0.6-0.7,1.2-1.2,2-1.5c0.8-0.3,1.6-0.5,2.5-0.5
	s1.7,0.2,2.5,0.5c0.8,0.3,1.5,0.8,2.1,1.5c0.6,0.6,1,1.5,1.4,2.5c0.4,1,0.5,2.2,0.5,3.7C591.8,230.8,591.6,232.1,591.3,233.1z
	 M616.5,230.6c0,0.8,0,1.5,0,2.3s0.1,1.5,0.1,2.3h-0.1c-0.3-0.5-0.5-1-0.9-1.5c-0.3-0.5-0.7-1-1-1.5l-9.4-13h-2.6v20.5h2.9v-10.6
	c0-0.9,0-1.8,0-2.7c0-0.9-0.1-1.8-0.1-2.7h0.1c0.3,0.6,0.6,1.1,1,1.7c0.4,0.6,0.7,1.1,1,1.5l9.3,12.9h2.6v-20.5h-2.9V230.6z
	 M631.2,230.3h8.5v-2.4h-8.5v-6.2h9.4v-2.5h-12.4v20.5h12.5v-2.5h-9.5V230.3z M662.8,219.2h-3.3l-5.2,8l-4.9-8H646l6.5,10.1
	l-6.8,10.4h3.3l5.3-8.3l5.3,8.3h3.5l-7.1-10.4L662.8,219.2z M674,215.5c0.2-0.3,0.5-0.4,1-0.4c0.3,0,0.5,0.1,0.8,0.2
	c0.3,0.1,0.6,0.3,1,0.5c0.3,0.2,0.7,0.3,1.1,0.5c0.4,0.1,0.8,0.2,1.3,0.2c0.5,0,0.8-0.1,1.2-0.3c0.3-0.2,0.6-0.5,0.8-0.8
	c0.2-0.3,0.4-0.7,0.5-1.1c0.1-0.4,0.2-0.9,0.2-1.3h-1.6c0,0.4-0.2,0.7-0.4,1c-0.2,0.3-0.5,0.5-0.9,0.5c-0.3,0-0.7-0.1-1-0.2
	c-0.3-0.1-0.6-0.3-1-0.5c-0.3-0.2-0.6-0.3-1-0.5c-0.4-0.2-0.8-0.2-1.2-0.2c-1,0-1.7,0.3-2.2,1c-0.4,0.7-0.7,1.5-0.7,2.5v0h1.6
	C673.7,216.1,673.8,215.8,674,215.5z M684,221.6c-0.9-0.9-1.9-1.6-3-2c-1.2-0.4-2.5-0.7-3.8-0.7s-2.7,0.2-3.9,0.7
	c-1.2,0.5-2.2,1.1-3.1,2c-0.9,0.9-1.5,2-2,3.3c-0.5,1.3-0.8,2.8-0.8,4.5c0,1.8,0.2,3.3,0.7,4.6c0.5,1.3,1.1,2.4,2,3.3
	c0.9,0.9,1.9,1.5,3.1,2c1.2,0.4,2.5,0.6,3.8,0.6s2.7-0.2,3.8-0.7c1.2-0.4,2.2-1.1,3.1-2c0.9-0.9,1.5-2,2-3.3
	c0.5-1.3,0.8-2.8,0.8-4.6c0-1.8-0.2-3.3-0.7-4.6C685.6,223.5,684.9,222.4,684,221.6z M683,233.1c-0.3,1-0.8,1.9-1.4,2.5
	c-0.6,0.7-1.2,1.2-2,1.5c-0.8,0.3-1.6,0.5-2.5,0.5s-1.7-0.2-2.5-0.5c-0.8-0.3-1.5-0.8-2-1.5c-0.6-0.7-1.1-1.5-1.4-2.5
	c-0.3-1-0.5-2.2-0.5-3.6c0-1.4,0.2-2.6,0.5-3.6c0.3-1,0.8-1.9,1.3-2.5c0.6-0.7,1.2-1.2,2-1.5c0.8-0.3,1.6-0.5,2.5-0.5
	s1.7,0.2,2.5,0.5c0.8,0.3,1.5,0.8,2.1,1.5c0.6,0.6,1,1.5,1.4,2.5c0.4,1,0.5,2.2,0.5,3.7C683.5,230.8,683.3,232.1,683,233.1z
	 M697.4,230.3h8.5v-2.4h-8.5v-6.2h9.4v-2.5h-12.4v20.5h12.5v-2.5h-9.5V230.3z M721.7,228.4l-2-0.6c-1.2-0.4-2.1-0.8-2.6-1.3
	c-0.5-0.5-0.8-1.2-0.8-2c0-1,0.4-1.7,1.1-2.3c0.7-0.6,1.7-0.8,2.9-0.8c0.8,0,1.5,0.1,2.3,0.3c0.8,0.2,1.6,0.5,2.5,0.9l0.7-2.5
	c-0.9-0.4-1.8-0.7-2.8-0.9c-0.9-0.2-1.9-0.3-2.9-0.3c-2.3,0-4,0.5-5.2,1.6c-1.2,1-1.8,2.5-1.8,4.3c0,1.4,0.4,2.5,1.2,3.4
	c0.8,0.8,2,1.5,3.5,2l2,0.6c0.8,0.2,1.4,0.5,1.9,0.8s0.9,0.5,1.2,0.9c0.3,0.3,0.5,0.6,0.6,1c0.1,0.3,0.2,0.7,0.2,1.1
	c0,1.1-0.4,1.9-1.2,2.4c-0.8,0.5-1.8,0.8-3,0.8c-1,0-1.9-0.1-2.8-0.3c-0.9-0.2-1.8-0.5-2.7-1l-0.7,2.4c1.1,0.5,2.1,0.8,3.2,1
	c1.1,0.2,2.2,0.3,3.2,0.3s2-0.1,2.9-0.4c0.9-0.3,1.6-0.7,2.2-1.2c0.7-0.5,1.2-1.1,1.5-1.9c0.4-0.7,0.5-1.6,0.5-2.5
	c0-1.3-0.4-2.4-1.2-3.4C724.9,229.8,723.6,229,721.7,228.4z M613.1,101.2h-20.7v37.2h20.7V101.2z M638,120.3c-1.8-3-3.9-5.8-6.4-8.3
	c-0.6-0.6-1.2-1.1-1.8-1.6l-13.3,14.9c0.2,0.2,0.4,0.4,0.7,0.6c1.8,1.9,3.2,4.2,4.2,6.8c1,2.6,1.5,5.3,1.5,8.3c0,3-0.5,5.7-1.5,8.3
	c-1,2.6-2.4,4.8-4.2,6.7c-1.8,1.9-3.9,3.4-6.4,4.5c-2.5,1.1-5.2,1.6-8.1,1.6s-5.7-0.5-8.1-1.6c-2.5-1.1-4.6-2.6-6.4-4.5
	c-1.8-1.9-3.2-4.1-4.2-6.7c-1-2.6-1.5-5.3-1.5-8.3c0-2.9,0.5-5.7,1.5-8.3c1-2.6,2.4-4.8,4.2-6.8c0.2-0.2,0.4-0.4,0.6-0.5l-13.3-14.9
	c-0.6,0.5-1.1,1-1.7,1.5c-2.5,2.5-4.6,5.3-6.4,8.3c-1.8,3-3.2,6.3-4.1,9.8c-1,3.5-1.4,7.1-1.4,10.9c0,3.8,0.5,7.4,1.4,10.9
	c1,3.5,2.3,6.7,4.1,9.7c1.8,3,3.9,5.8,6.4,8.2c2.5,2.5,5.2,4.6,8.3,6.4c3,1.8,6.3,3.2,9.8,4.1c3.5,1,7.1,1.4,10.9,1.4
	c3.8,0,7.4-0.5,10.9-1.4c3.5-1,6.8-2.3,9.8-4.1c3-1.8,5.8-3.9,8.3-6.4c2.5-2.5,4.6-5.2,6.4-8.2s3.1-6.3,4.1-9.7
	c1-3.5,1.5-7.1,1.5-10.9c0-3.8-0.5-7.4-1.5-10.9C641.2,126.6,639.8,123.3,638,120.3z M706.6,101.2V146l-28-44.9h-21.7v79.4h19.9
	l0.1-48.3l29.2,48.3h20.7v-79.4H706.6z M158,80c4.1-1.1,7.8-3,10.9-5.6c3.1-2.6,5.6-6.1,7.5-10.4c1.9-4.3,2.8-9.6,2.8-15.9V0h-21
	v2.4c0,0,0,0,0,0v46c0,2.4-0.4,4.5-1.1,6.3c-0.7,1.8-1.7,3.4-2.9,4.6c-1.2,1.2-2.6,2.2-4.2,2.8c-1.6,0.6-3.3,1-5.1,1
	c-1.7,0-3.4-0.3-5-0.8c-1.6-0.5-3-1.4-4.2-2.6c-1.2-1.2-2.2-2.7-2.9-4.6c-0.7-1.9-1.1-4.1-1.1-6.8v-46c0,0,0,0,0,0V0h-21v48.1
	c0,6.2,0.9,11.5,2.8,15.8c1.9,4.3,4.4,7.7,7.5,10.4c3.1,2.7,6.8,4.6,11,5.8c4.2,1.2,8.5,1.8,13.1,1.8S153.9,81.2,158,80z
	 M251.5,78.6c2.8-1.3,5.4-3.1,7.5-5.3c2.1-2.2,3.9-4.8,5.1-7.8c1.3-3,1.9-6.1,1.9-9.4c0-3.7-0.8-7.2-2.3-10.4
	c-1.5-3.3-3.6-6.1-6.2-8.5c1.5-1.8,2.8-3.9,3.6-6.3c0.9-2.3,1.3-4.8,1.3-7.6c0-3.2-0.6-6.3-1.8-9.1c-1.2-2.8-2.9-5.3-5-7.4
	c-2.1-2.1-4.6-3.8-7.4-5c-2.8-1.2-5.8-1.8-9-1.8h-38.4v80.5h41.6C245.6,80.5,248.6,79.9,251.5,78.6z M221.8,16h11.6
	c1.2,0,2.3,0.2,3.3,0.6c1,0.4,1.9,1,2.6,1.7c0.7,0.7,1.3,1.5,1.7,2.5c0.4,0.9,0.6,2,0.6,3c0,1.2-0.2,2.2-0.6,3.2
	c-0.4,1-1,1.8-1.7,2.5c-0.7,0.7-1.6,1.2-2.6,1.6c-1,0.4-2.2,0.6-3.4,0.6h-11.5V16z M239.5,63.6c-1,0.5-2.1,0.8-3.3,0.8h-14.4V46.3
	h14.3c1.2,0,2.3,0.3,3.3,0.8c1,0.6,1.9,1.2,2.7,2.1s1.3,1.8,1.7,2.9c0.4,1.1,0.6,2.2,0.6,3.2c0,1.2-0.2,2.3-0.6,3.4
	c-0.4,1.1-1,2.1-1.8,2.9C241.4,62.5,240.5,63.1,239.5,63.6z M20.8,80.5h21V47.3h26.9v30.8c0,0,0,0,0,0v2.4h21V0h-21v2.4c0,0,0,0,0,0
	v25.7H41.8V0h-21V80.5l-20.7,0v20.7h20.7V80.5z M306.5,120.3c-1.8-3-3.9-5.8-6.4-8.3c-2.5-2.5-5.2-4.6-8.3-6.4
	c-3-1.8-6.3-3.1-9.8-4.1c-3.5-1-7.1-1.5-10.9-1.5c-3.8,0-7.4,0.5-10.9,1.5c-3.5,1-6.7,2.3-9.8,4.1c-3,1.8-5.8,3.9-8.3,6.4
	c-2.5,2.5-4.6,5.3-6.4,8.3c-1.8,3.1-3.2,6.3-4.1,9.8c-1,3.5-1.4,7.1-1.4,10.9c0,3.8,0.5,7.4,1.4,10.9c1,3.5,2.3,6.7,4.1,9.7
	c1.8,3,3.9,5.8,6.4,8.2c2.5,2.5,5.2,4.6,8.3,6.4c3,1.8,6.3,3.2,9.8,4.1c3.5,1,7.1,1.4,10.9,1.4c3.8,0,7.4-0.5,10.9-1.4
	c3.5-1,6.8-2.3,9.8-4.1c3-1.8,5.8-3.9,8.3-6.4c2.5-2.5,4.6-5.2,6.4-8.2s3.1-6.3,4.1-9.7c1-3.5,1.5-7.1,1.5-10.9
	c0-3.8-0.5-7.4-1.5-10.9C309.6,126.6,308.2,123.3,306.5,120.3z M289.9,149.2c-1,2.6-2.4,4.8-4.2,6.7c-1.8,1.9-3.9,3.4-6.4,4.5
	c-2.5,1.1-5.2,1.6-8.1,1.6s-5.7-0.5-8.1-1.6c-2.5-1.1-4.6-2.6-6.4-4.5c-1.8-1.9-3.2-4.2-4.2-6.7c-1-2.6-1.5-5.3-1.5-8.3
	c0-2.9,0.5-5.7,1.5-8.3c1-2.6,2.4-4.8,4.2-6.8c1.8-1.9,3.9-3.5,6.4-4.5c2.5-1.1,5.2-1.7,8.1-1.7c3,0,5.7,0.6,8.1,1.7
	c2.5,1.1,4.6,2.6,6.4,4.5c1.8,1.9,3.2,4.2,4.2,6.8s1.5,5.3,1.5,8.3C291.4,143.8,290.9,146.6,289.9,149.2z M20.8,180.5h20.7v-48.4
	H20.8V180.5z M146.5,101.2v79.4h19.9l0.1-48.3l29.2,48.3h20.7v-79.4h-20.2V146l-28-44.9H146.5z M41.5,121.8v-20.7H20.8v20.7H41.5z
	 M532.4,180.5h20.7v-48.4h-20.7V180.5z M532.4,121.8h20.7v-20.7h-20.7V121.8z M128.9,101.2h-20.2V146l-28-44.9H59v79.4h19.9
	l0.1-48.3l29.2,48.3h20.7V101.2z M362.3,177.3c0-0.1,0.1-0.2,0.1-0.3c0.2-0.6,0.5-1.2,0.6-1.6l27.6-71.8l0,0l0.9-2.4h-22.3l-1.8,5.3
	c-1,3-2.1,5.9-3,8.9c-1,3-2,6-2.9,9l-9.2,27.5l-16.9-50.7h-22.1l0.9,2.4c0,0,0,0,0,0l27.4,71.8l2,5.2H361L362.3,177.3z M413.1,101.2
	l-30.7,79.4H403l4.9-12.8h28.4l4.7,12.8h20.8l-30.6-79.4H413.1z M413.8,150.6l8.2-24.4l8.2,24.4H413.8z M477.6,180.5h20.7v-58.7h21
	v-20.7h-62.6v20.7h21V180.5z"/>
</svg>
