<?xml version="1.0" encoding="utf-8"?>
<!-- Generator: Adobe Illustrator 27.3.1, SVG Export Plug-In . SVG Version: 6.00 Build 0)  -->
<svg version="1.1" id="Camada_1" xmlns="http://www.w3.org/2000/svg" xmlns:xlink="http://www.w3.org/1999/xlink" x="0px" y="0px"
	 viewBox="0 0 727 182" style="enable-background:new 0 0 727 182;" xml:space="preserve">
<style type="text/css">
	.st0{fill:#FFFFFF;}
</style>
<g>
	<rect x="592.4" y="101.5" class="st0" width="20.7" height="37.2"/>
	<path class="st0" d="M638,120.6c-1.8-3.1-3.9-5.8-6.4-8.3c-0.6-0.6-1.2-1.1-1.8-1.7l-13.3,14.9c0.2,0.2,0.4,0.4,0.7,0.6
		c1.8,1.9,3.2,4.2,4.2,6.8s1.5,5.3,1.5,8.3s-0.5,5.7-1.5,8.3s-2.4,4.8-4.2,6.7s-3.9,3.4-6.4,4.5s-5.2,1.6-8.1,1.6s-5.7-0.5-8.1-1.6
		c-2.5-1.1-4.6-2.6-6.4-4.5c-1.8-1.9-3.2-4.1-4.2-6.7c-1-2.6-1.5-5.3-1.5-8.3c0-2.9,0.5-5.7,1.5-8.3s2.4-4.8,4.2-6.8
		c0.2-0.2,0.4-0.4,0.6-0.6l-13.3-14.9c-0.6,0.5-1.1,1-1.7,1.6c-2.5,2.5-4.6,5.3-6.4,8.3c-1.8,3.1-3.2,6.3-4.1,9.8
		c-1,3.5-1.4,7.1-1.4,10.9s0.5,7.4,1.4,10.9c1,3.5,2.3,6.7,4.1,9.7s3.9,5.8,6.4,8.2c2.5,2.5,5.2,4.6,8.3,6.4c3,1.8,6.3,3.2,9.8,4.1
		c3.5,1,7.1,1.4,10.9,1.4c3.8,0,7.4-0.5,10.9-1.4c3.5-1,6.8-2.3,9.8-4.1s5.8-3.9,8.3-6.4s4.6-5.2,6.4-8.2s3.1-6.3,4.1-9.7
		c1-3.5,1.5-7.1,1.5-10.9s-0.5-7.4-1.5-10.9C641.2,126.9,639.8,123.6,638,120.6z"/>
	<polygon class="st0" points="706.6,101.5 706.6,146.3 678.6,101.5 656.9,101.5 656.9,180.9 676.8,180.9 676.9,132.6 706.1,180.9 
		726.8,180.9 726.8,101.5 	"/>
</g>
<g>
	<g>
		<path class="st0" d="M259,73.6c2.1-2.2,3.9-4.8,5.1-7.8c1.3-3,1.9-6.1,1.9-9.3c0-3.7-0.8-7.2-2.3-10.5s-3.6-6.1-6.2-8.5
			c1.5-1.8,2.8-3.9,3.6-6.3c0.9-2.3,1.3-4.9,1.3-7.6c0-3.2-0.6-6.3-1.8-9.1c-1.2-2.8-2.9-5.3-5-7.4s-4.6-3.8-7.4-5
			c-2.8-1.2-5.8-1.8-9-1.8h-38.4v80.5h41.6c3.2,0,6.2-0.7,9.1-1.9C254.3,77.5,256.9,75.8,259,73.6z M221.8,16.3h11.6
			c1.2,0,2.3,0.2,3.3,0.6s1.9,1,2.6,1.7c0.7,0.7,1.3,1.5,1.7,2.5s0.6,2,0.6,3c0,1.2-0.2,2.2-0.6,3.2c-0.4,1-1,1.8-1.7,2.5
			s-1.6,1.2-2.6,1.6s-2.2,0.6-3.4,0.6h-11.5L221.8,16.3L221.8,16.3z M243.9,59c-0.4,1.1-1,2.1-1.8,2.9c-0.8,0.8-1.6,1.5-2.7,2
			c-1,0.5-2.1,0.8-3.3,0.8h-14.4V46.6H236c1.2,0,2.3,0.3,3.3,0.8s1.9,1.2,2.7,2.1s1.3,1.8,1.7,2.9c0.4,1.1,0.6,2.2,0.6,3.2
			C244.5,56.8,244.3,57.9,243.9,59z"/>
		<path class="st0" d="M68.7,78.4C68.7,78.4,68.8,78.4,68.7,78.4v2.4h21V0.3h-21v2.4l0,0v25.7H41.8V0.3h-21v80.5h21V47.6h26.9V78.4z
			"/>
		<path class="st0" d="M168.9,74.7c3.1-2.6,5.6-6.1,7.5-10.4s2.8-9.6,2.8-15.9V0.3h-21v2.4l0,0v46c0,2.4-0.4,4.5-1.1,6.3
			c-0.7,1.8-1.7,3.4-2.9,4.6c-1.2,1.2-2.6,2.2-4.2,2.8c-1.6,0.6-3.3,1-5.1,1c-1.7,0-3.4-0.3-5-0.8s-3-1.4-4.2-2.6
			c-1.2-1.2-2.2-2.7-2.9-4.6s-1.1-4.1-1.1-6.8v-46l0,0V0.3h-21v48.1c0,6.2,0.9,11.5,2.8,15.8c1.9,4.3,4.4,7.7,7.5,10.4
			s6.8,4.6,11,5.8c4.1,1.2,8.5,1.8,13.1,1.8s8.9-0.6,13-1.7C162.2,79.2,165.8,77.3,168.9,74.7z"/>
	</g>
	<rect x="0.2" y="80.8" class="st0" width="20.7" height="20.7"/>
	<path class="st0" d="M310.6,130.4c-1-3.5-2.4-6.7-4.1-9.8c-1.8-3.1-3.9-5.8-6.4-8.3s-5.2-4.6-8.3-6.4c-3-1.8-6.3-3.1-9.8-4.1
		s-7.1-1.5-10.9-1.5s-7.4,0.5-10.9,1.5s-6.7,2.3-9.8,4.1c-3,1.8-5.8,3.9-8.3,6.4s-4.6,5.3-6.4,8.3c-1.8,3.1-3.2,6.3-4.1,9.8
		c-1,3.5-1.4,7.1-1.4,10.9s0.5,7.4,1.4,10.9c1,3.5,2.3,6.7,4.1,9.7s3.9,5.8,6.4,8.2s5.2,4.6,8.3,6.4c3,1.8,6.3,3.2,9.8,4.1
		c3.5,1,7.1,1.4,10.9,1.4s7.4-0.5,10.9-1.4c3.5-1,6.8-2.3,9.8-4.1s5.8-3.9,8.3-6.4s4.6-5.2,6.4-8.2s3.1-6.3,4.1-9.7
		c1-3.5,1.5-7.1,1.5-10.9C312,137.5,311.5,133.8,310.6,130.4z M289.9,149.5c-1,2.6-2.4,4.8-4.2,6.7c-1.8,1.9-3.9,3.4-6.4,4.5
		s-5.2,1.6-8.1,1.6s-5.7-0.5-8.1-1.6c-2.5-1.1-4.6-2.6-6.4-4.5c-1.8-1.9-3.2-4.1-4.2-6.7c-1-2.6-1.5-5.3-1.5-8.3
		c0-2.9,0.5-5.7,1.5-8.3s2.4-4.8,4.2-6.8c1.8-1.9,3.9-3.4,6.4-4.6c2.5-1.1,5.2-1.7,8.1-1.7c3,0,5.7,0.6,8.1,1.7
		c2.5,1.1,4.6,2.6,6.4,4.6c1.8,1.9,3.2,4.2,4.2,6.8s1.5,5.3,1.5,8.3S290.9,146.9,289.9,149.5z"/>
	<rect x="20.8" y="132.5" class="st0" width="20.7" height="48.4"/>
	<polygon class="st0" points="196.3,146.3 168.3,101.5 146.6,101.5 146.6,180.9 166.5,180.9 166.6,132.6 195.8,180.9 216.5,180.9 
		216.5,101.5 196.3,101.5 	"/>
	<rect x="20.8" y="101.5" class="st0" width="20.7" height="20.7"/>
	<rect x="532.4" y="132.5" class="st0" width="20.7" height="48.4"/>
	<rect x="532.4" y="101.5" class="st0" width="20.7" height="20.7"/>
	<polygon class="st0" points="108.7,146.3 80.7,101.5 59,101.5 59,180.9 78.8,180.9 78.9,132.6 108.2,180.9 128.9,180.9 
		128.9,101.5 108.7,101.5 	"/>
	<path class="st0" d="M390.6,103.9l0.9-2.4h-22.3l-1.8,5.3c-1,3-2.1,5.9-3,8.9c-1,3-2,6-2.9,9l-9.2,27.5l-16.9-50.7h-22.1l0.9,2.4
		l0,0l27.4,71.8l0,0l2,5.2H361l1.3-3.3c0-0.1,0.1-0.2,0.1-0.3c0.2-0.6,0.5-1.2,0.6-1.6L390.6,103.9L390.6,103.9L390.6,103.9z"/>
	<path class="st0" d="M431.1,101.5h-18l-30.7,79.4H403l4.9-12.8h28.4l4.7,12.8h20.8L431.1,101.5z M413.8,150.9l8.2-24.4l8.2,24.4
		H413.8z"/>
	<polygon class="st0" points="456.7,101.5 456.7,122.1 477.6,122.1 477.6,180.8 498.3,180.8 498.3,122.1 519.2,122.1 519.2,101.5 	
		"/>
</g>
<path class="st0" d="M613.1,101.5h-20.7v37.2h20.7V101.5z M638,120.6c-1.8-3.1-3.9-5.8-6.4-8.3c-0.6-0.6-1.2-1.1-1.8-1.7l-13.3,14.9
	c0.2,0.2,0.4,0.4,0.7,0.6c1.8,1.9,3.2,4.2,4.2,6.8s1.5,5.3,1.5,8.3s-0.5,5.7-1.5,8.3s-2.4,4.8-4.2,6.7s-3.9,3.4-6.4,4.5
	s-5.2,1.6-8.1,1.6s-5.7-0.5-8.1-1.6c-2.5-1.1-4.6-2.6-6.4-4.5c-1.8-1.9-3.2-4.1-4.2-6.7c-1-2.6-1.5-5.3-1.5-8.3
	c0-2.9,0.5-5.7,1.5-8.3s2.4-4.8,4.2-6.8c0.2-0.2,0.4-0.4,0.6-0.6l-13.3-14.9c-0.6,0.5-1.1,1-1.7,1.6c-2.5,2.5-4.6,5.3-6.4,8.3
	c-1.8,3.1-3.2,6.3-4.1,9.8c-1,3.5-1.4,7.1-1.4,10.9s0.5,7.4,1.4,10.9c1,3.5,2.3,6.7,4.1,9.7s3.9,5.8,6.4,8.2
	c2.5,2.5,5.2,4.6,8.3,6.4c3,1.8,6.3,3.2,9.8,4.1c3.5,1,7.1,1.4,10.9,1.4c3.8,0,7.4-0.5,10.9-1.4c3.5-1,6.8-2.3,9.8-4.1
	s5.8-3.9,8.3-6.4s4.6-5.2,6.4-8.2s3.1-6.3,4.1-9.7c1-3.5,1.5-7.1,1.5-10.9s-0.5-7.4-1.5-10.9C641.2,126.9,639.8,123.6,638,120.6z
	 M676.9,132.6l29.2,48.3h20.7v-79.4h-20.2v44.8l-28-44.8h-21.7v79.4h19.9L676.9,132.6z"/>
</svg>
